<svg neo-graph="neo-graph" graph-data="frame.response.graph" ng-controller="D3GraphCtrl" style="pointer-events:fill" preserveAspectRatio="xMidyMid"><defs></defs><g class="layer relationships"><g class="relationship"><path fill="#D4D6D7" stroke="none" d="M 0 0.5 L 16.88671475864095 0.5 L 16.88671475864095 -0.5 L 0 -0.5 Z M 44.88671475864095 0.5 L 61.7734295172819 0.5 L 61.7734295172819 3.5 L 68.7734295172819 0 L 61.7734295172819 -3.5 L 61.7734295172819 -0.5 L 44.88671475864095 -0.5 Z" transform="translate(587.1214969526573 312.49961198103847) rotate(-141.57809013920087)"></path><text text-anchor="middle" font-size="8px" fill="#000000" x="562.9231188584218" y="296.30514282479254" transform="rotate(38.42190986079913 562.9231188584218 293.30514282479254)">donate</text><rect class="overlay" fill="yellow" x="0" y="-10" height="20" opacity="0" width="68.7734295172819" transform="translate(587.1214969526573 312.49961198103847) rotate(-141.57809013920087)"></rect></g><g class="relationship"><path fill="#D4D6D7" stroke="none" d="M 0 0.5 L 36.39444098445399 0.5 L 36.39444098445399 -0.5 L 0 -0.5 Z M 64.394440984454 0.5 L 100.78888196890799 0.5 L 100.78888196890799 3.5 L 107.78888196890799 0 L 100.78888196890799 -3.5 L 100.78888196890799 -0.5 L 64.394440984454 -0.5 Z" transform="translate(604.4980478658382 303.1336573580843) rotate(-95.0712124403027)"></path><text text-anchor="middle" font-size="8px" fill="#000000" x="600.043489859481" y="255.93648019538307" transform="rotate(84.9287875596973 600.043489859481 252.93648019538304)">donate</text><rect class="overlay" fill="yellow" x="0" y="-10" height="20" opacity="0" width="107.78888196890799" transform="translate(604.4980478658382 303.1336573580843) rotate(-95.0712124403027)"></rect></g><g class="relationship"><path fill="#DFE1E3" stroke="none" d="M 0 1 L 17.28183892107465 1 L 17.28183892107465 -1 L 0 -1 Z M 46.28183892107465 1 L 63.5636778421493 1 L 63.5636778421493 4 L 71.5636778421493 0 L 63.5636778421493 -4 L 63.5636778421493 -1 L 46.28183892107465 -1 Z" transform="translate(624.7224976573712 133.74437107274642) rotate(-33.67440436770434)"></path><text text-anchor="middle" font-size="8px" fill="#000000" x="651.1714045099651" y="119.12220856333964" transform="rotate(-33.67440436770434 651.1714045099651 116.12220856333964)">impact</text><rect class="overlay" fill="yellow" x="0" y="-10" height="20" opacity="0" width="71.5636778421493" transform="translate(624.7224976573712 133.74437107274642) rotate(-33.67440436770434)"></rect></g><g class="relationship"><path fill="#DFE1E3" stroke="none" d="M 0 1 L 21.96751295799723 1 L 21.96751295799723 -1 L 0 -1 Z M 50.96751295799723 1 L 72.93502591599446 1 L 72.93502591599446 4 L 80.93502591599446 0 L 72.93502591599446 -4 L 72.93502591599446 -1 L 50.96751295799723 -1 Z" transform="translate(464.84897657042893 229.83446218590123) rotate(-157.87029507299977)"></path><text text-anchor="middle" font-size="8px" fill="#000000" x="431.067899356967" y="219.09698339101973" transform="rotate(22.129704927000233 431.067899356967 216.09698339101973)">impact</text><rect class="overlay" fill="yellow" x="0" y="-10" height="20" opacity="0" width="80.93502591599446" transform="translate(464.84897657042893 229.83446218590123) rotate(-157.87029507299977)"></rect></g><g class="relationship"><path fill="#DFE1E3" stroke="none" d="M 0 1 L 19.28969903908191 1 L 19.28969903908191 -1 L 0 -1 Z M 48.28969903908191 1 L 67.57939807816382 1 L 67.57939807816382 4 L 75.57939807816382 0 L 67.57939807816382 -4 L 67.57939807816382 -1 L 48.28969903908191 -1 Z" transform="translate(488.4099808314024 207.24687615727504) rotate(-109.71296860644765)"></path><text text-anchor="middle" font-size="8px" fill="#000000" x="477.012433308798" y="178.43744875561143" transform="rotate(70.28703139355235 477.012433308798 175.43744875561143)">impact</text><rect class="overlay" fill="yellow" x="0" y="-10" height="20" opacity="0" width="75.57939807816382" transform="translate(488.4099808314024 207.24687615727504) rotate(-109.71296860644765)"></rect></g><g class="relationship"><path fill="#DFE1E3" stroke="none" d="M 0 1 L 20.276831606316193 1 L 20.276831606316193 -1 L 0 -1 Z M 49.27683160631619 1 L 69.55366321263239 1 L 69.55366321263239 4 L 77.55366321263239 0 L 69.55366321263239 -4 L 69.55366321263239 -1 L 49.27683160631619 -1 Z" transform="translate(630.6276232801661 163.91658530410953) rotate(11.527172503908854)"></path><text text-anchor="middle" font-size="8px" fill="#000000" x="664.70300773188" y="173.86613140741446" transform="rotate(11.527172503908854 664.70300773188 170.86613140741446)">impact</text><rect class="overlay" fill="yellow" x="0" y="-10" height="20" opacity="0" width="77.55366321263239" transform="translate(630.6276232801661 163.91658530410953) rotate(11.527172503908854)"></rect></g><g class="relationship"><path fill="#DFE1E3" stroke="none" d="M 0 1 L 4.689093632239519 1 L 4.689093632239519 -1 L 0 -1 Z M 33.68909363223952 1 L 38.37818726447904 1 L 38.37818726447904 4 L 46.37818726447904 0 L 38.37818726447904 -4 L 38.37818726447904 -1 L 33.68909363223952 -1 Z" transform="translate(586.0978523087538 116.28086514432508) rotate(-97.66693248396989)"></path><text text-anchor="middle" font-size="8px" fill="#000000" x="583.5377541567456" y="100.26331504240765" transform="rotate(82.33306751603011 583.5377541567456 97.26331504240765)">impact</text><rect class="overlay" fill="yellow" x="0" y="-10" height="20" opacity="0" width="46.37818726447904" transform="translate(586.0978523087538 116.28086514432508) rotate(-97.66693248396989)"></rect></g><g class="relationship"><path fill="#DFE1E3" stroke="none" d="M 0 1 L 14.530711407035596 1 L 14.530711407035596 -1 L 0 -1 Z M 43.5307114070356 1 L 58.06142281407119 1 L 58.06142281407119 4 L 66.0614228140712 0 L 58.06142281407119 -4 L 58.06142281407119 -1 L 43.5307114070356 -1 Z" transform="translate(465.774674993454 262.0722008677727) rotate(154.5807316797802)"></path><text text-anchor="middle" font-size="8px" fill="#000000" x="439.5543979367916" y="277.5333114069843" transform="rotate(334.58073167978023 439.5543979367916 274.5333114069843)">impact</text><rect class="overlay" fill="yellow" x="0" y="-10" height="20" opacity="0" width="66.0614228140712" transform="translate(465.774674993454 262.0722008677727) rotate(154.5807316797802)"></rect></g><g class="relationship"><path fill="#DFE1E3" stroke="none" d="M 0 1 L 20.825651437804183 1 L 20.825651437804183 -1 L 0 -1 Z M 49.82565143780418 1 L 70.65130287560837 1 L 70.65130287560837 4 L 78.65130287560837 0 L 70.65130287560837 -4 L 70.65130287560837 -1 L 49.82565143780418 -1 Z" transform="translate(553.300215017693 143.8492457429069) rotate(-162.4311966829645)"></path><text text-anchor="middle" font-size="8px" fill="#000000" x="519.6223228574569" y="136.186167896959" transform="rotate(17.568803317035503 519.6223228574569 133.186167896959)">impact</text><rect class="overlay" fill="yellow" x="0" y="-10" height="20" opacity="0" width="78.65130287560837" transform="translate(553.300215017693 143.8492457429069) rotate(-162.4311966829645)"></rect></g></g><g class="layer nodes"><g class="node" transform="translate(606.7078937929571,328.0357974464059)"><circle class="outline" cx="0" cy="0" r="25" fill="#FCC940" stroke="#F3BA25" stroke-width="2px"></circle><text text-anchor="middle" y="5" font-size="10px" fill="#000000">Benjamin</text></g><g class="node" transform="translate(501.9023147044229,244.90264499365577)"><circle class="outline" cx="0" cy="0" r="40" fill="#4356C0" stroke="#3445A2" stroke-width="2px"></circle><text text-anchor="middle" y="0" font-size="10px" fill="#FFFFFF">Solar</text><text text-anchor="middle" y="10" font-size="10px" fill="#FFFFFF">City</text></g><g class="node" transform="translate(591.4344215101403,155.9232796666371)"><circle class="outline" cx="0" cy="0" r="40" fill="#4356C0" stroke="#3445A2" stroke-width="2px"></circle><text text-anchor="middle" y="0" font-size="10px" fill="#FFFFFF">Sun</text><text text-anchor="middle" y="10" font-size="10px" fill="#FFFFFF">Nation</text></g><g class="node" transform="translate(705.0829741840247,80.20244646397308)"><circle class="outline" cx="0" cy="0" r="25" fill="#30B6AF" stroke="#46A39E" stroke-width="2px"></circle><text text-anchor="middle" y="0" font-size="10px" fill="#FFFFFF">News</text><text text-anchor="middle" y="10" font-size="10px" fill="#FFFFFF">article</text></g><g class="node" transform="translate(366.71781818296006,189.92825377974077)"><circle class="outline" cx="0" cy="0" r="25" fill="#30B6AF" stroke="#46A39E" stroke-width="2px"></circle><text text-anchor="middle" y="0" font-size="10px" fill="#FFFFFF">Governor's</text><text text-anchor="middle" y="10" font-size="10px" fill="#FFFFFF">tweet</text></g><g class="node" transform="translate(576.5749864135935,45.54077295958285)"><circle class="outline" cx="0" cy="0" r="25" fill="#30B6AF" stroke="#46A39E" stroke-width="2px"></circle><text text-anchor="middle" y="0" font-size="10px" fill="#FFFFFF">School</text><text text-anchor="middle" y="10" font-size="10px" fill="#FFFFFF">visit</text></g><g class="node" transform="translate(383.52881811857986,301.15930554234234)"><circle class="outline" cx="0" cy="0" r="25" fill="#30B6AF" stroke="#46A39E" stroke-width="2px"></circle><text text-anchor="middle" y="5" font-size="10px" fill="#FFFFFF">Impact</text></g><g class="node" transform="translate(454.4837103409517,112.56201206393371)"><circle class="outline" cx="0" cy="0" r="25" fill="#30B6AF" stroke="#46A39E" stroke-width="2px"></circle><text text-anchor="middle" y="5" font-size="10px" fill="#FFFFFF">Impact</text></g><g class="node" transform="translate(731.1127836438653,184.41015466163415)"><circle class="outline" cx="0" cy="0" r="25" fill="#30B6AF" stroke="#46A39E" stroke-width="2px"></circle><text text-anchor="middle" y="5" font-size="10px" fill="#FFFFFF">Impact</text></g></g></svg>