<svg neo-graph="neo-graph" graph-data="frame.response.graph" ng-controller="D3GraphCtrl" style="pointer-events:fill" preserveAspectRatio="xMidyMid"><defs></defs><g class="layer relationships"><g class="relationship"><path fill="#D4D6D7" stroke="none" d="M 0 0.5 L 8.142252412404481 0.5 L 8.142252412404481 -0.5 L 0 -0.5 Z M 8.142252412404481 0.5 L 16.284504824808963 0.5 L 16.284504824808963 3.5 L 23.284504824808963 0 L 16.284504824808963 -3.5 L 16.284504824808963 -0.5 L 8.142252412404481 -0.5 Z" transform="translate(729.0624054039752 142.2262697771531) rotate(102.57085127353656)"></path><text text-anchor="middle" font-size="8px" fill="#000000" x="727.2902708398206" y="153.17333297268863" transform="rotate(282.57085127353656 727.2902708398206 150.17333297268863)"></text><rect class="overlay" fill="yellow" x="0" y="-10" height="20" opacity="0" width="23.284504824808963" transform="translate(729.0624054039752 142.2262697771531) rotate(102.57085127353656)"></rect></g><g class="relationship"><path fill="#D4D6D7" stroke="none" d="M 0 0.5 L 24.66840308298876 0.5 L 24.66840308298876 -0.5 L 0 -0.5 Z M 52.66840308298876 0.5 L 77.33680616597752 0.5 L 77.33680616597752 3.5 L 84.33680616597752 0 L 77.33680616597752 -3.5 L 77.33680616597752 -0.5 L 52.66840308298876 -0.5 Z" transform="translate(614.0295461379732 276.1478136401041) rotate(-35.47247813778924)"></path><text text-anchor="middle" font-size="8px" fill="#000000" x="645.5208756508799" y="256.7080818569917" transform="rotate(-35.47247813778924 645.5208756508799 253.70808185699175)">donate</text><rect class="overlay" fill="yellow" x="0" y="-10" height="20" opacity="0" width="84.33680616597752" transform="translate(614.0295461379732 276.1478136401041) rotate(-35.47247813778924)"></rect></g><g class="relationship"><path fill="#D4D6D7" stroke="none" d="M 0 0.5 L 26.724466558708343 0.5 L 26.724466558708343 -0.5 L 0 -0.5 Z M 54.72446655870834 0.5 L 81.44893311741669 0.5 L 81.44893311741669 3.5 L 88.44893311741669 0 L 81.44893311741669 -3.5 L 81.44893311741669 -0.5 L 54.72446655870834 -0.5 Z" transform="translate(633.4870043498995 303.02704408916816) rotate(-50.44322860076966)"></path><text text-anchor="middle" font-size="8px" fill="#000000" x="659.4220742412423" y="274.62872683772105" transform="rotate(-50.44322860076966 659.4220742412423 271.62872683772105)">donate</text><rect class="overlay" fill="yellow" x="0" y="-10" height="20" opacity="0" width="88.44893311741669" transform="translate(633.4870043498995 303.02704408916816) rotate(-50.44322860076966)"></rect></g><g class="relationship"><path fill="#D4D6D7" stroke="none" d="M 0 0.5 L 1.4750431535123596 0.5 L 1.4750431535123596 -0.5 L 0 -0.5 Z M 23.47504315351236 0.5 L 24.95008630702472 0.5 L 24.95008630702472 3.5 L 31.95008630702472 0 L 24.95008630702472 -3.5 L 24.95008630702472 -0.5 L 23.47504315351236 -0.5 Z" transform="translate(655.4199039303517 164.0870860818997) rotate(33.6861254212171)"></path><text text-anchor="middle" font-size="8px" fill="#000000" x="665.8002433420078" y="174.00628078799187" transform="rotate(33.6861254212171 665.8002433420078 171.00628078799187)">do…</text><rect class="overlay" fill="yellow" x="0" y="-10" height="20" opacity="0" width="31.95008630702472" transform="translate(655.4199039303517 164.0870860818997) rotate(33.6861254212171)"></rect></g><g class="relationship"><path fill="#D4D6D7" stroke="none" d="M 0 0.5 L 3.0404776120325394 0.5 L 3.0404776120325394 -0.5 L 0 -0.5 Z M 31.04047761203254 0.5 L 34.08095522406508 0.5 L 34.08095522406508 3.5 L 41.08095522406508 0 L 34.08095522406508 -3.5 L 34.08095522406508 -0.5 L 31.04047761203254 -0.5 Z" transform="translate(786.5837531742789 242.60900746175025) rotate(-151.55882269851082)"></path><text text-anchor="middle" font-size="8px" fill="#000000" x="771.5999500317463" y="237.49337312843937" transform="rotate(28.441177301489176 771.5999500317463 234.49337312843937)">donate</text><rect class="overlay" fill="yellow" x="0" y="-10" height="20" opacity="0" width="41.08095522406508" transform="translate(786.5837531742789 242.60900746175025) rotate(-151.55882269851082)"></rect></g><g class="relationship"><path fill="#D4D6D7" stroke="none" d="M 0 0.5 L 4.9963890679713145 0.5 L 4.9963890679713145 -0.5 L 0 -0.5 Z M 32.996389067971315 0.5 L 37.99277813594263 0.5 L 37.99277813594263 3.5 L 44.99277813594263 0 L 37.99277813594263 -3.5 L 37.99277813594263 -0.5 L 32.996389067971315 -0.5 Z" transform="translate(800.1812863744642 199.8672007532318) rotate(177.2171325731425)"></path><text text-anchor="middle" font-size="8px" fill="#000000" x="781.2072997531152" y="203.7894964295799" transform="rotate(357.2171325731425 781.2072997531152 200.7894964295799)">donate</text><rect class="overlay" fill="yellow" x="0" y="-10" height="20" opacity="0" width="44.99277813594263" transform="translate(800.1812863744642 199.8672007532318) rotate(177.2171325731425)"></rect></g><g class="relationship"><path fill="#D4D6D7" stroke="none" d="M 0 0.5 L 7.314892419653226 0.5 L 7.314892419653226 -0.5 L 0 -0.5 Z M 35.314892419653226 0.5 L 42.62978483930645 0.5 L 42.62978483930645 3.5 L 49.62978483930645 0 L 42.62978483930645 -3.5 L 42.62978483930645 -0.5 L 35.314892419653226 -0.5 Z" transform="translate(791.7061622505893 157.1548645814644) rotate(148.49445520085294)"></path><text text-anchor="middle" font-size="8px" fill="#000000" x="773.5333067430666" y="171.2936240080834" transform="rotate(328.49445520085294 773.5333067430666 168.2936240080834)">donate</text><rect class="overlay" fill="yellow" x="0" y="-10" height="20" opacity="0" width="49.62978483930645" transform="translate(791.7061622505893 157.1548645814644) rotate(148.49445520085294)"></rect></g><g class="relationship"><path fill="#D4D6D7" stroke="none" d="M 0 0.5 L 15.739269109822914 0.5 L 15.739269109822914 -0.5 L 0 -0.5 Z M 43.739269109822914 0.5 L 59.47853821964583 0.5 L 59.47853821964583 3.5 L 66.47853821964583 0 L 59.47853821964583 -3.5 L 59.47853821964583 -0.5 L 43.739269109822914 -0.5 Z" transform="translate(769.7435778148837 112.49314886055303) rotate(120.75820082800394)"></path><text text-anchor="middle" font-size="8px" fill="#000000" x="754.534437119245" y="141.0490907623248" transform="rotate(300.75820082800396 754.534437119245 138.0490907623248)">donate</text><rect class="overlay" fill="yellow" x="0" y="-10" height="20" opacity="0" width="66.47853821964583" transform="translate(769.7435778148837 112.49314886055303) rotate(120.75820082800394)"></rect></g><g class="relationship"><path fill="#D4D6D7" stroke="none" d="M 0 0.5 L 16.247303351316532 0.5 L 16.247303351316532 -0.5 L 0 -0.5 Z M 44.24730335131653 0.5 L 60.494606702633064 0.5 L 60.494606702633064 3.5 L 67.49460670263306 0 L 60.494606702633064 -3.5 L 60.494606702633064 -0.5 L 44.24730335131653 -0.5 Z" transform="translate(704.9716075027306 96.99534244511423) rotate(84.49237944812799)"></path><text text-anchor="middle" font-size="8px" fill="#000000" x="707.8746875112746" y="130.10300735773336" transform="rotate(84.49237944812799 707.8746875112746 127.10300735773336)">donate</text><rect class="overlay" fill="yellow" x="0" y="-10" height="20" opacity="0" width="67.49460670263306" transform="translate(704.9716075027306 96.99534244511423) rotate(84.49237944812799)"></rect></g><g class="relationship"><path fill="#D4D6D7" stroke="none" d="M 0 0.5 L 12.055477953227232 0.5 L 12.055477953227232 -0.5 L 0 -0.5 Z M 40.05547795322723 0.5 L 52.110955906454464 0.5 L 52.110955906454464 3.5 L 59.110955906454464 0 L 52.110955906454464 -3.5 L 52.110955906454464 -0.5 L 40.05547795322723 -0.5 Z" transform="translate(662.9766987240384 119.81274670531327) rotate(58.14219963378028)"></path><text text-anchor="middle" font-size="8px" fill="#000000" x="676.7291162246966" y="144.94324476249" transform="rotate(58.14219963378028 676.7291162246966 141.94324476249)">donate</text><rect class="overlay" fill="yellow" x="0" y="-10" height="20" opacity="0" width="59.110955906454464" transform="translate(662.9766987240384 119.81274670531327) rotate(58.14219963378028)"></rect></g><g class="relationship"><path fill="#D4D6D7" stroke="none" d="M 0 0.5 L 0.8718950783932229 0.5 L 0.8718950783932229 -0.5 L 0 -0.5 Z M 22.871895078393223 0.5 L 23.743790156786446 0.5 L 23.743790156786446 3.5 L 30.743790156786446 0 L 23.743790156786446 -3.5 L 23.743790156786446 -0.5 L 22.871895078393223 -0.5 Z" transform="translate(745.7553371985953 267.84093606848404) rotate(-115.50952114917405)"></path><text text-anchor="middle" font-size="8px" fill="#000000" x="740.6425740622468" y="260.1263877409075" transform="rotate(64.49047885082595 740.6425740622468 257.1263877409075)">do…</text><rect class="overlay" fill="yellow" x="0" y="-10" height="20" opacity="0" width="30.743790156786446" transform="translate(745.7553371985953 267.84093606848404) rotate(-115.50952114917405)"></rect></g><g class="relationship"><path fill="#D4D6D7" stroke="none" d="M 0 0.5 L 7.273480928134958 0.5 L 7.273480928134958 -0.5 L 0 -0.5 Z M 35.27348092813496 0.5 L 42.54696185626992 0.5 L 42.54696185626992 3.5 L 49.54696185626992 0 L 42.54696185626992 -3.5 L 42.54696185626992 -0.5 L 35.27348092813496 -0.5 Z" transform="translate(409.7653209605288 322.3042649929966) rotate(45.83273019902487)"></path><text text-anchor="middle" font-size="8px" fill="#000000" x="424.58773482550635" y="340.5639189214133" transform="rotate(45.83273019902487 424.58773482550635 337.5639189214133)">donate</text><rect class="overlay" fill="yellow" x="0" y="-10" height="20" opacity="0" width="49.54696185626992" transform="translate(409.7653209605288 322.3042649929966) rotate(45.83273019902487)"></rect></g><g class="relationship"><path fill="#D4D6D7" stroke="none" d="M 0 0.5 L 0.03360246470188599 0.5 L 0.03360246470188599 -0.5 L 0 -0.5 Z M 18.033602464701886 0.5 L 18.067204929403772 0.5 L 18.067204929403772 3.5 L 25.067204929403772 0 L 18.067204929403772 -3.5 L 18.067204929403772 -0.5 L 18.033602464701886 -0.5 Z" transform="translate(472.46907689848325 451.6035435817556) rotate(-90.27422764810699)"></path><text text-anchor="middle" font-size="8px" fill="#000000" x="472.4258406580321" y="445.57004458536557" transform="rotate(89.72577235189301 472.4258406580321 442.57004458536557)">d…</text><rect class="overlay" fill="yellow" x="0" y="-10" height="20" opacity="0" width="25.067204929403772" transform="translate(472.46907689848325 451.6035435817556) rotate(-90.27422764810699)"></rect></g><g class="relationship"><path fill="#D4D6D7" stroke="none" d="M 0 0.5 L 8.88979722343241 0.5 L 8.88979722343241 -0.5 L 0 -0.5 Z M 8.88979722343241 0.5 L 17.77959444686482 0.5 L 17.77959444686482 3.5 L 24.77959444686482 0 L 17.77959444686482 -3.5 L 17.77959444686482 -0.5 L 8.88979722343241 -0.5 Z" transform="translate(523.0805847277288 426.57770189286396) rotate(-141.82208669109522)"></path><text text-anchor="middle" font-size="8px" fill="#000000" x="516.0923576037229" y="424.08287010862756" transform="rotate(38.17791330890478 516.0923576037229 421.08287010862756)"></text><rect class="overlay" fill="yellow" x="0" y="-10" height="20" opacity="0" width="24.77959444686482" transform="translate(523.0805847277288 426.57770189286396) rotate(-141.82208669109522)"></rect></g><g class="relationship"><path fill="#D4D6D7" stroke="none" d="M 0 0.5 L 29.482277691668145 0.5 L 29.482277691668145 -0.5 L 0 -0.5 Z M 57.482277691668145 0.5 L 86.96455538333629 0.5 L 86.96455538333629 3.5 L 93.96455538333629 0 L 86.96455538333629 -3.5 L 86.96455538333629 -0.5 L 57.482277691668145 -0.5 Z" transform="translate(594.6979065027772 332.4040175940894) rotate(156.16619925274375)"></path><text text-anchor="middle" font-size="8px" fill="#000000" x="554.923734689177" y="352.974553436731" transform="rotate(336.16619925274375 554.923734689177 349.974553436731)">donate</text><rect class="overlay" fill="yellow" x="0" y="-10" height="20" opacity="0" width="93.96455538333629" transform="translate(594.6979065027772 332.4040175940894) rotate(156.16619925274375)"></rect></g><g class="relationship"><path fill="#D4D6D7" stroke="none" d="M 0 0.5 L 27.392556293636062 0.5 L 27.392556293636062 -0.5 L 0 -0.5 Z M 55.39255629363606 0.5 L 82.78511258727212 0.5 L 82.78511258727212 3.5 L 89.78511258727212 0 L 82.78511258727212 -3.5 L 82.78511258727212 -0.5 L 55.39255629363606 -0.5 Z" transform="translate(574.0437634113475 306.14183300213574) rotate(141.72409541218653)"></path><text text-anchor="middle" font-size="8px" fill="#000000" x="541.5490774457963" y="334.78240827887316" transform="rotate(321.72409541218656 541.5490774457963 331.78240827887316)">donate</text><rect class="overlay" fill="yellow" x="0" y="-10" height="20" opacity="0" width="89.78511258727212" transform="translate(574.0437634113475 306.14183300213574) rotate(141.72409541218653)"></rect></g><g class="relationship"><path fill="#D4D6D7" stroke="none" d="M 0 0.5 L 1.8068002385996351 0.5 L 1.8068002385996351 -0.5 L 0 -0.5 Z M 29.806800238599635 0.5 L 31.61360047719927 0.5 L 31.61360047719927 3.5 L 38.61360047719927 0 L 31.61360047719927 -3.5 L 31.61360047719927 -0.5 L 29.806800238599635 -0.5 Z" transform="translate(453.5260904509564 310.1632468936037) rotate(76.2903487105719)"></path><text text-anchor="middle" font-size="8px" fill="#000000" x="457.27233051269303" y="328.5196989311947" transform="rotate(76.2903487105719 457.27233051269303 325.5196989311947)">donate</text><rect class="overlay" fill="yellow" x="0" y="-10" height="20" opacity="0" width="38.61360047719927" transform="translate(453.5260904509564 310.1632468936037) rotate(76.2903487105719)"></rect></g><g class="relationship"><path fill="#D4D6D7" stroke="none" d="M 0 0.5 L 0.9702107652331975 0.5 L 0.9702107652331975 -0.5 L 0 -0.5 Z M 26.970210765233197 0.5 L 27.940421530466395 0.5 L 27.940421530466395 3.5 L 34.940421530466395 0 L 27.940421530466395 -3.5 L 27.940421530466395 -0.5 L 26.970210765233197 -0.5 Z" transform="translate(399.2504519044424 369.1990762162662) rotate(13.37699021497994)"></path><text text-anchor="middle" font-size="8px" fill="#000000" x="412.8416350500677" y="375.43118536156265" transform="rotate(13.37699021497994 412.8416350500677 372.43118536156265)">don…</text><rect class="overlay" fill="yellow" x="0" y="-10" height="20" opacity="0" width="34.940421530466395" transform="translate(399.2504519044424 369.1990762162662) rotate(13.37699021497994)"></rect></g><g class="relationship"><path fill="#D4D6D7" stroke="none" d="M 0 0.5 L 0.1937231805152777 0.5 L 0.1937231805152777 -0.5 L 0 -0.5 Z M 18.193723180515278 0.5 L 18.387446361030555 0.5 L 18.387446361030555 3.5 L 25.387446361030555 0 L 18.387446361030555 -3.5 L 18.387446361030555 -0.5 L 18.193723180515278 -0.5 Z" transform="translate(416.33618428103773 420.5882446065074) rotate(-31.383238582948234)"></path><text text-anchor="middle" font-size="8px" fill="#000000" x="424.1848949770201" y="418.80052214893783" transform="rotate(-31.383238582948234 424.1848949770201 415.80052214893783)">d…</text><rect class="overlay" fill="yellow" x="0" y="-10" height="20" opacity="0" width="25.387446361030555" transform="translate(416.33618428103773 420.5882446065074) rotate(-31.383238582948234)"></rect></g><g class="relationship"><path fill="#DFE1E3" stroke="none" d="M 0 1 L 25.595524892756472 1 L 25.595524892756472 -1 L 0 -1 Z M 54.59552489275647 1 L 80.19104978551294 1 L 80.19104978551294 4 L 88.19104978551294 0 L 80.19104978551294 -4 L 80.19104978551294 -1 L 54.59552489275647 -1 Z" transform="translate(677.8003855704303 217.94443823575) rotate(159.58798400988957)"></path><text text-anchor="middle" font-size="8px" fill="#000000" x="640.2225041202418" y="234.92849852385055" transform="rotate(339.58798400988957 640.2225041202418 231.92849852385055)">impact</text><rect class="overlay" fill="yellow" x="0" y="-10" height="20" opacity="0" width="88.19104978551294" transform="translate(677.8003855704303 217.94443823575) rotate(159.58798400988957)"></rect></g><g class="relationship"><path fill="#DFE1E3" stroke="none" d="M 0 1 L 30.521062086984287 1 L 30.521062086984287 -1 L 0 -1 Z M 59.52106208698429 1 L 90.04212417396857 1 L 90.04212417396857 4 L 98.04212417396857 0 L 90.04212417396857 -4 L 90.04212417396857 -1 L 59.52106208698429 -1 Z" transform="translate(496.5830176294091 354.86056797342076) rotate(-52.36463588386107)"></path><text text-anchor="middle" font-size="8px" fill="#000000" x="524.0744117764433" y="322.20780820236644" transform="rotate(-52.36463588386107 524.0744117764433 319.20780820236644)">impact</text><rect class="overlay" fill="yellow" x="0" y="-10" height="20" opacity="0" width="98.04212417396857" transform="translate(496.5830176294091 354.86056797342076) rotate(-52.36463588386107)"></rect></g></g><g class="layer nodes"><g class="node" transform="translate(734.5035735058594,117.82557942447995)"><circle class="outline" cx="0" cy="0" r="25" fill="#FCC940" stroke="#F3BA25" stroke-width="2px"></circle><text text-anchor="middle" y="5" font-size="10px" fill="#000000">Benjamin</text></g><g class="node" transform="translate(617.5659425884429,322.3018927886492)"><circle class="outline" cx="0" cy="0" r="25" fill="#FCC940" stroke="#F3BA25" stroke-width="2px"></circle><text text-anchor="middle" y="5" font-size="10px" fill="#000000">Taylor</text></g><g class="node" transform="translate(634.6176924992562,150.221012391918)"><circle class="outline" cx="0" cy="0" r="25" fill="#FCC940" stroke="#F3BA25" stroke-width="2px"></circle><text text-anchor="middle" y="5" font-size="10px" fill="#000000">Selly</text></g><g class="node" transform="translate(593.6696870526878,290.65560940746036)"><circle class="outline" cx="0" cy="0" r="25" fill="#FCC940" stroke="#F3BA25" stroke-width="2px"></circle><text text-anchor="middle" y="5" font-size="10px" fill="#000000">Molie</text></g><g class="node" transform="translate(447.6010455253736,285.8755166038087)"><circle class="outline" cx="0" cy="0" r="25" fill="#FCC940" stroke="#F3BA25" stroke-width="2px"></circle><text text-anchor="middle" y="5" font-size="10px" fill="#000000">Emil</text></g><g class="node" transform="translate(649.7813761076721,98.57873010340745)"><circle class="outline" cx="0" cy="0" r="25" fill="#FCC940" stroke="#F3BA25" stroke-width="2px"></circle><text text-anchor="middle" y="5" font-size="10px" fill="#000000">Greta</text></g><g class="node" transform="translate(756.5218641569863,290.40377935682517)"><circle class="outline" cx="0" cy="0" r="25" fill="#FCC940" stroke="#F3BA25" stroke-width="2px"></circle><text text-anchor="middle" y="5" font-size="10px" fill="#000000">Adam</text></g><g class="node" transform="translate(392.34643460731525,304.3715463420549)"><circle class="outline" cx="0" cy="0" r="25" fill="#FCC940" stroke="#F3BA25" stroke-width="2px"></circle><text text-anchor="middle" y="5" font-size="10px" fill="#000000">Richard</text></g><g class="node" transform="translate(374.9287301816592,363.41514568076553)"><circle class="outline" cx="0" cy="0" r="25" fill="#FCC940" stroke="#F3BA25" stroke-width="2px"></circle><text text-anchor="middle" y="5" font-size="10px" fill="#000000">Chris</text></g><g class="node" transform="translate(394.99360483341917,433.60724236063925)"><circle class="outline" cx="0" cy="0" r="25" fill="#FCC940" stroke="#F3BA25" stroke-width="2px"></circle><text text-anchor="middle" y="5" font-size="10px" fill="#000000">Charlie</text></g><g class="node" transform="translate(542.7329652836819,442.0303372177527)"><circle class="outline" cx="0" cy="0" r="25" fill="#FCC940" stroke="#F3BA25" stroke-width="2px"></circle><text text-anchor="middle" y="5" font-size="10px" fill="#000000">Robert</text></g><g class="node" transform="translate(472.5887308256405,476.60325723887007)"><circle class="outline" cx="0" cy="0" r="25" fill="#FCC940" stroke="#F3BA25" stroke-width="2px"></circle><text text-anchor="middle" y="5" font-size="10px" fill="#000000">Utpal</text></g><g class="node" transform="translate(808.5664162833696,254.5154142510475)"><circle class="outline" cx="0" cy="0" r="25" fill="#FCC940" stroke="#F3BA25" stroke-width="2px"></circle><text text-anchor="middle" y="5" font-size="10px" fill="#000000">User</text></g><g class="node" transform="translate(825.1518038678912,198.65342313337987)"><circle class="outline" cx="0" cy="0" r="25" fill="#FCC940" stroke="#F3BA25" stroke-width="2px"></circle><text text-anchor="middle" y="5" font-size="10px" fill="#000000">User</text></g><g class="node" transform="translate(813.0209021396428,144.0903376684074)"><circle class="outline" cx="0" cy="0" r="25" fill="#FCC940" stroke="#F3BA25" stroke-width="2px"></circle><text text-anchor="middle" y="5" font-size="10px" fill="#000000">User</text></g><g class="node" transform="translate(782.5289800380128,91.00981834610991)"><circle class="outline" cx="0" cy="0" r="25" fill="#FCC940" stroke="#F3BA25" stroke-width="2px"></circle><text text-anchor="middle" y="5" font-size="10px" fill="#000000">User</text></g><g class="node" transform="translate(702.5721539259728,72.11075640208382)"><circle class="outline" cx="0" cy="0" r="25" fill="#FCC940" stroke="#F3BA25" stroke-width="2px"></circle><text text-anchor="middle" y="5" font-size="10px" fill="#000000">User</text></g><g class="node" transform="translate(715.2887402441233,203.99369403124965)"><circle class="outline" cx="0" cy="0" r="40" fill="#4356C0" stroke="#3445A2" stroke-width="2px"></circle><text text-anchor="middle" y="0" font-size="10px" fill="#FFFFFF">Solar</text><text text-anchor="middle" y="10" font-size="10px" fill="#FFFFFF">City</text></g><g class="node" transform="translate(472.1576550345253,386.5370839136003)"><circle class="outline" cx="0" cy="0" r="40" fill="#4356C0" stroke="#3445A2" stroke-width="2px"></circle><text text-anchor="middle" y="5" font-size="10px" fill="#FFFFFF">Energiser</text></g><g class="node" transform="translate(571.7167300642566,257.4219227806639)"><circle class="outline" cx="0" cy="0" r="25" fill="#30B6AF" stroke="#46A39E" stroke-width="2px"></circle><text text-anchor="middle" y="5" font-size="10px" fill="#FFFFFF">Impact</text></g></g></svg>