<svg neo-graph="neo-graph" graph-data="frame.response.graph" ng-controller="D3GraphCtrl" style="pointer-events:fill" preserveAspectRatio="xMidyMid"><defs></defs><g class="layer relationships"><g class="relationship"><path fill="#D4D6D7" stroke="none" d="M 0 0.5 L 44.77037800509204 0.5 L 44.77037800509204 -0.5 L 0 -0.5 Z M 72.77037800509204 0.5 L 117.54075601018408 0.5 L 117.54075601018408 3.5 L 124.54075601018408 0 L 117.54075601018408 -3.5 L 117.54075601018408 -0.5 L 72.77037800509204 -0.5 Z" transform="translate(600.6753396494466 363.2267014327938) rotate(176.5794411324655)"></path><text text-anchor="middle" font-size="8px" fill="#000000" x="542.0096620511264" y="369.73321006551527" transform="rotate(356.5794411324655 542.0096620511264 366.73321006551527)">donate</text><rect class="overlay" fill="yellow" x="0" y="-10" height="20" opacity="0" width="124.54075601018408" transform="translate(600.6753396494466 363.2267014327938) rotate(176.5794411324655)"></rect></g><g class="relationship"><path fill="#D4D6D7" stroke="none" d="M 0 0.5 L 3.372835964370836 0.5 L 3.372835964370836 -0.5 L 0 -0.5 Z M 31.372835964370836 0.5 L 34.74567192874167 0.5 L 34.74567192874167 3.5 L 41.74567192874167 0 L 34.74567192874167 -3.5 L 34.74567192874167 -0.5 L 31.372835964370836 -0.5 Z" transform="translate(479.28375156417746 303.43278233007084) rotate(121.61848120811261)"></path><text text-anchor="middle" font-size="8px" fill="#000000" x="470.17585798433504" y="321.2267575897231" transform="rotate(301.6184812081126 470.17585798433504 318.2267575897231)">donate</text><rect class="overlay" fill="yellow" x="0" y="-10" height="20" opacity="0" width="41.74567192874167" transform="translate(479.28375156417746 303.43278233007084) rotate(121.61848120811261)"></rect></g><g class="relationship"><path fill="#D4D6D7" stroke="none" d="M 0 0.5 L 1.9099562270926356 0.5 L 1.9099562270926356 -0.5 L 0 -0.5 Z M 29.909956227092636 0.5 L 31.81991245418527 0.5 L 31.81991245418527 3.5 L 38.81991245418527 0 L 31.81991245418527 -3.5 L 31.81991245418527 -0.5 L 29.909956227092636 -0.5 Z" transform="translate(499.5031092151512 325.7779679433092) rotate(143.15368953103246)"></path><text text-anchor="middle" font-size="8px" fill="#000000" x="486.7712154839108" y="338.3187010998546" transform="rotate(323.15368953103246 486.7712154839108 335.3187010998546)">donate</text><rect class="overlay" fill="yellow" x="0" y="-10" height="20" opacity="0" width="38.81991245418527" transform="translate(499.5031092151512 325.7779679433092) rotate(143.15368953103246)"></rect></g><g class="relationship"><path fill="#D4D6D7" stroke="none" d="M 0 0.5 L 16.97297111127385 0.5 L 16.97297111127385 -0.5 L 0 -0.5 Z M 44.97297111127385 0.5 L 61.9459422225477 0.5 L 61.9459422225477 3.5 L 68.9459422225477 0 L 61.9459422225477 -3.5 L 61.9459422225477 -0.5 L 44.97297111127385 -0.5 Z" transform="translate(334.99879308898 412.8106724008947) rotate(-21.408402103168083)"></path><text text-anchor="middle" font-size="8px" fill="#000000" x="363.8347003920004" y="404.50512555558817" transform="rotate(-21.408402103168083 363.8347003920004 401.50512555558817)">donate</text><rect class="overlay" fill="yellow" x="0" y="-10" height="20" opacity="0" width="68.9459422225477" transform="translate(334.99879308898 412.8106724008947) rotate(-21.408402103168083)"></rect></g><g class="relationship"><path fill="#D4D6D7" stroke="none" d="M 0 0.5 L 13.318790842912463 0.5 L 13.318790842912463 -0.5 L 0 -0.5 Z M 41.31879084291246 0.5 L 54.63758168582493 0.5 L 54.63758168582493 3.5 L 61.63758168582493 0 L 54.63758168582493 -3.5 L 54.63758168582493 -0.5 L 41.31879084291246 -0.5 Z" transform="translate(381.71673625301787 287.38820744105345) rotate(57.43236771764263)"></path><text text-anchor="middle" font-size="8px" fill="#000000" x="396.4222987083039" y="313.4112994573852" transform="rotate(57.43236771764263 396.4222987083039 310.4112994573852)">donate</text><rect class="overlay" fill="yellow" x="0" y="-10" height="20" opacity="0" width="61.63758168582493" transform="translate(381.71673625301787 287.38820744105345) rotate(57.43236771764263)"></rect></g><g class="relationship"><path fill="#D4D6D7" stroke="none" d="M 0 0.5 L 4.5294882024077765 0.5 L 4.5294882024077765 -0.5 L 0 -0.5 Z M 32.52948820240778 0.5 L 37.05897640481555 0.5 L 37.05897640481555 3.5 L 44.05897640481555 0 L 37.05897640481555 -3.5 L 37.05897640481555 -0.5 L 32.52948820240778 -0.5 Z" transform="translate(514.4770113460838 404.2564339078195) rotate(-158.20317070928175)"></path><text text-anchor="middle" font-size="8px" fill="#000000" x="497.27226339313466" y="400.3761300686958" transform="rotate(21.79682929071825 497.27226339313466 397.3761300686958)">donate</text><rect class="overlay" fill="yellow" x="0" y="-10" height="20" opacity="0" width="44.05897640481555" transform="translate(514.4770113460838 404.2564339078195) rotate(-158.20317070928175)"></rect></g><g class="relationship"><path fill="#D4D6D7" stroke="none" d="M 0 0.5 L 4.3902038349241295 0.5 L 4.3902038349241295 -0.5 L 0 -0.5 Z M 32.39020383492413 0.5 L 36.78040766984826 0.5 L 36.78040766984826 3.5 L 43.78040766984826 0 L 36.78040766984826 -3.5 L 36.78040766984826 -0.5 L 32.39020383492413 -0.5 Z" transform="translate(416.1453522279404 291.75568538726446) rotate(75.99009819380325)"></path><text text-anchor="middle" font-size="8px" fill="#000000" x="420.5974289070459" y="312.59885243612166" transform="rotate(75.99009819380325 420.5974289070459 309.59885243612166)">donate</text><rect class="overlay" fill="yellow" x="0" y="-10" height="20" opacity="0" width="43.78040766984826" transform="translate(416.1453522279404 291.75568538726446) rotate(75.99009819380325)"></rect></g><g class="relationship"><path fill="#D4D6D7" stroke="none" d="M 0 0.5 L 9.797394599623814 0.5 L 9.797394599623814 -0.5 L 0 -0.5 Z M 37.797394599623814 0.5 L 47.59478919924763 0.5 L 47.59478919924763 3.5 L 54.59478919924763 0 L 47.59478919924763 -3.5 L 47.59478919924763 -0.5 L 37.797394599623814 -0.5 Z" transform="translate(498.09614788463375 444.77385338785393) rotate(-130.68667604432827)"></path><text text-anchor="middle" font-size="8px" fill="#000000" x="482.5821007936401" y="429.7286231984483" transform="rotate(49.313323955671734 482.5821007936401 426.7286231984483)">donate</text><rect class="overlay" fill="yellow" x="0" y="-10" height="20" opacity="0" width="54.59478919924763" transform="translate(498.09614788463375 444.77385338785393) rotate(-130.68667604432827)"></rect></g><g class="relationship"><path fill="#D4D6D7" stroke="none" d="M 0 0.5 L 27.418723436198476 0.5 L 27.418723436198476 -0.5 L 0 -0.5 Z M 55.418723436198476 0.5 L 82.83744687239695 0.5 L 82.83744687239695 3.5 L 89.83744687239695 0 L 82.83744687239695 -3.5 L 82.83744687239695 -0.5 L 55.418723436198476 -0.5 Z" transform="translate(395.0549044954906 249.9746509055331) rotate(71.41864710845805)"></path><text text-anchor="middle" font-size="8px" fill="#000000" x="408.2530154241542" y="292.23430601098437" transform="rotate(71.41864710845805 408.2530154241542 289.23430601098437)">donate</text><rect class="overlay" fill="yellow" x="0" y="-10" height="20" opacity="0" width="89.83744687239695" transform="translate(395.0549044954906 249.9746509055331) rotate(71.41864710845805)"></rect></g><g class="relationship"><path fill="#D4D6D7" stroke="none" d="M 0 0.5 L 20.834875221688847 0.5 L 20.834875221688847 -0.5 L 0 -0.5 Z M 48.83487522168885 0.5 L 69.6697504433777 0.5 L 69.6697504433777 3.5 L 76.6697504433777 0 L 69.6697504433777 -3.5 L 69.6697504433777 -0.5 L 48.83487522168885 -0.5 Z" transform="translate(531.9759906035874 439.994366207454) rotate(-144.98117691595053)"></path><text text-anchor="middle" font-size="8px" fill="#000000" x="503.4474969705906" y="423.0045292210579" transform="rotate(35.01882308404947 503.4474969705906 420.0045292210579)">donate</text><rect class="overlay" fill="yellow" x="0" y="-10" height="20" opacity="0" width="76.6697504433777" transform="translate(531.9759906035874 439.994366207454) rotate(-144.98117691595053)"></rect></g><g class="relationship"><path fill="#D4D6D7" stroke="none" d="M 0 0.5 L 19.184061261426635 0.5 L 19.184061261426635 -0.5 L 0 -0.5 Z M 47.184061261426635 0.5 L 66.36812252285327 0.5 L 66.36812252285327 3.5 L 73.36812252285327 0 L 66.36812252285327 -3.5 L 66.36812252285327 -0.5 L 47.184061261426635 -0.5 Z" transform="translate(323.2948533910788 365.7441815501748) rotate(3.6918283160556418)"></path><text text-anchor="middle" font-size="8px" fill="#000000" x="356.41005148348535" y="370.880902660378" transform="rotate(3.6918283160556418 356.41005148348535 367.880902660378)">donate</text><rect class="overlay" fill="yellow" x="0" y="-10" height="20" opacity="0" width="73.36812252285327" transform="translate(323.2948533910788 365.7441815501748) rotate(3.6918283160556418)"></rect></g><g class="relationship"><path fill="#D4D6D7" stroke="none" d="M 0 0.5 L 2.5688239929211605 0.5 L 2.5688239929211605 -0.5 L 0 -0.5 Z M 30.56882399292116 0.5 L 33.13764798584232 0.5 L 33.13764798584232 3.5 L 40.13764798584232 0 L 33.13764798584232 -3.5 L 33.13764798584232 -0.5 L 30.56882399292116 -0.5 Z" transform="translate(781.804671668162 209.08068062809397) rotate(69.11584975472799)"></path><text text-anchor="middle" font-size="8px" fill="#000000" x="787.711118693748" y="227.5609846316446" transform="rotate(69.11584975472799 787.711118693748 224.5609846316446)">donate</text><rect class="overlay" fill="yellow" x="0" y="-10" height="20" opacity="0" width="40.13764798584232" transform="translate(781.804671668162 209.08068062809397) rotate(69.11584975472799)"></rect></g><g class="relationship"><path fill="#D4D6D7" stroke="none" d="M 0 0.5 L 1.9665979514771834 0.5 L 1.9665979514771834 -0.5 L 0 -0.5 Z M 1.9665979514771834 0.5 L 3.933195902954367 0.5 L 3.933195902954367 3.5 L 10.933195902954367 0 L 3.933195902954367 -3.5 L 3.933195902954367 -0.5 L 1.9665979514771834 -0.5 Z" transform="translate(768.6588957114474 254.7268587918567) rotate(35.017299084403334)"></path><text text-anchor="middle" font-size="8px" fill="#000000" x="770.2694977995052" y="258.85533937064315" transform="rotate(35.017299084403334 770.2694977995052 255.85533937064312)"></text><rect class="overlay" fill="yellow" x="0" y="-10" height="20" opacity="0" width="10.933195902954367" transform="translate(768.6588957114474 254.7268587918567) rotate(35.017299084403334)"></rect></g><g class="relationship"><path fill="#D4D6D7" stroke="none" d="M 0 0.5 L 14.552306983736898 0.5 L 14.552306983736898 -0.5 L 0 -0.5 Z M 42.5523069837369 0.5 L 57.104613967473796 0.5 L 57.104613967473796 3.5 L 64.1046139674738 0 L 57.104613967473796 -3.5 L 57.104613967473796 -0.5 L 42.5523069837369 -0.5 Z" transform="translate(914.397529207504 279.893764509471) rotate(177.7650679661693)"></path><text text-anchor="middle" font-size="8px" fill="#000000" x="885.8669412083789" y="284.00721972533034" transform="rotate(357.76506796616934 885.8669412083789 281.00721972533034)">donate</text><rect class="overlay" fill="yellow" x="0" y="-10" height="20" opacity="0" width="64.1046139674738" transform="translate(914.397529207504 279.893764509471) rotate(177.7650679661693)"></rect></g><g class="relationship"><path fill="#D4D6D7" stroke="none" d="M 0 0.5 L 12.625724780190964 0.5 L 12.625724780190964 -0.5 L 0 -0.5 Z M 40.625724780190964 0.5 L 53.25144956038193 0.5 L 53.25144956038193 3.5 L 60.25144956038193 0 L 53.25144956038193 -3.5 L 53.25144956038193 -0.5 L 40.625724780190964 -0.5 Z" transform="translate(902.0040524203966 324.6221882942697) rotate(-156.06710091762437)"></path><text text-anchor="middle" font-size="8px" fill="#000000" x="877.6675762162447" y="316.82102418871057" transform="rotate(23.932899082375627 877.6675762162447 313.82102418871057)">donate</text><rect class="overlay" fill="yellow" x="0" y="-10" height="20" opacity="0" width="60.25144956038193" transform="translate(902.0040524203966 324.6221882942697) rotate(-156.06710091762437)"></rect></g><g class="relationship"><path fill="#D4D6D7" stroke="none" d="M 0 0.5 L 30.223399320485825 0.5 L 30.223399320485825 -0.5 L 0 -0.5 Z M 58.223399320485825 0.5 L 88.44679864097165 0.5 L 88.44679864097165 3.5 L 95.44679864097165 0 L 88.44679864097165 -3.5 L 88.44679864097165 -0.5 L 58.223399320485825 -0.5 Z" transform="translate(690.019366544017 221.81615826191768) rotate(27.307028078423134)"></path><text text-anchor="middle" font-size="8px" fill="#000000" x="729.3145529901153" y="245.10402088037776" transform="rotate(27.307028078423134 729.3145529901153 242.10402088037776)">donate</text><rect class="overlay" fill="yellow" x="0" y="-10" height="20" opacity="0" width="95.44679864097165" transform="translate(690.019366544017 221.81615826191768) rotate(27.307028078423134)"></rect></g><g class="relationship"><path fill="#D4D6D7" stroke="none" d="M 0 0.5 L 33.14364131966512 0.5 L 33.14364131966512 -0.5 L 0 -0.5 Z M 61.14364131966512 0.5 L 94.28728263933024 0.5 L 94.28728263933024 3.5 L 101.28728263933024 0 L 94.28728263933024 -3.5 L 94.28728263933024 -0.5 L 61.14364131966512 -0.5 Z" transform="translate(795.416038304169 143.46007540259967) rotate(83.92352971204998)"></path><text text-anchor="middle" font-size="8px" fill="#000000" x="800.4064622430371" y="193.33884016648406" transform="rotate(83.92352971204998 800.4064622430371 190.33884016648406)">donate</text><rect class="overlay" fill="yellow" x="0" y="-10" height="20" opacity="0" width="101.28728263933024" transform="translate(795.416038304169 143.46007540259967) rotate(83.92352971204998)"></rect></g><g class="relationship"><path fill="#D4D6D7" stroke="none" d="M 0 0.5 L 0.58715987626735 0.5 L 0.58715987626735 -0.5 L 0 -0.5 Z M 22.58715987626735 0.5 L 23.1743197525347 0.5 L 23.1743197525347 3.5 L 30.1743197525347 0 L 23.1743197525347 -3.5 L 23.1743197525347 -0.5 L 22.58715987626735 -0.5 Z" transform="translate(802.8503484764851 353.7235743623577) rotate(-83.84683145147893)"></path><text text-anchor="middle" font-size="8px" fill="#000000" x="804.0923383403306" y="345.20316919690083" transform="rotate(-83.84683145147893 804.0923383403306 342.20316919690083)">do…</text><rect class="overlay" fill="yellow" x="0" y="-10" height="20" opacity="0" width="30.1743197525347" transform="translate(802.8503484764851 353.7235743623577) rotate(-83.84683145147893)"></rect></g><g class="relationship"><path fill="#D4D6D7" stroke="none" d="M 0 0.5 L 44.456961414378114 0.5 L 44.456961414378114 -0.5 L 0 -0.5 Z M 72.45696141437811 0.5 L 116.91392282875623 0.5 L 116.91392282875623 3.5 L 123.91392282875623 0 L 116.91392282875623 -3.5 L 116.91392282875623 -0.5 L 72.45696141437811 -0.5 Z" transform="translate(683.9688353113858 179.59843232326912) rotate(39.54215416754256)"></path><text text-anchor="middle" font-size="8px" fill="#000000" x="729.0482948440645" y="219.81480863859133" transform="rotate(39.54215416754256 729.0482948440645 216.81480863859133)">donate</text><rect class="overlay" fill="yellow" x="0" y="-10" height="20" opacity="0" width="123.91392282875623" transform="translate(683.9688353113858 179.59843232326912) rotate(39.54215416754256)"></rect></g><g class="relationship"><path fill="#D4D6D7" stroke="none" d="M 0 0.5 L 50.22389800287378 0.5 L 50.22389800287378 -0.5 L 0 -0.5 Z M 78.22389800287378 0.5 L 128.44779600574756 0.5 L 128.44779600574756 3.5 L 135.44779600574756 0 L 128.44779600574756 -3.5 L 128.44779600574756 -0.5 L 78.22389800287378 -0.5 Z" transform="translate(648.6718761194613 352.03411375971746) rotate(-22.832531982487303)"></path><text text-anchor="middle" font-size="8px" fill="#000000" x="707.8633805696779" y="330.11273988901115" transform="rotate(-22.832531982487303 707.8633805696779 327.11273988901115)">donate</text><rect class="overlay" fill="yellow" x="0" y="-10" height="20" opacity="0" width="135.44779600574756" transform="translate(648.6718761194613 352.03411375971746) rotate(-22.832531982487303)"></rect></g><g class="relationship"><path fill="#D4D6D7" stroke="none" d="M 0 0.5 L 24.690425024103945 0.5 L 24.690425024103945 -0.5 L 0 -0.5 Z M 52.690425024103945 0.5 L 77.38085004820789 0.5 L 77.38085004820789 3.5 L 84.38085004820789 0 L 77.38085004820789 -3.5 L 77.38085004820789 -0.5 L 52.690425024103945 -0.5 Z" transform="translate(748.496438337333 191.18417003194367) rotate(167.3824183129421)"></path><text text-anchor="middle" font-size="8px" fill="#000000" x="710.7403957085245" y="202.635810911525" transform="rotate(347.3824183129421 710.7403957085245 199.635810911525)">donate</text><rect class="overlay" fill="yellow" x="0" y="-10" height="20" opacity="0" width="84.38085004820789" transform="translate(748.496438337333 191.18417003194367) rotate(167.3824183129421)"></rect></g><g class="relationship"><path fill="#D4D6D7" stroke="none" d="M 0 0.5 L 46.683509590368686 0.5 L 46.683509590368686 -0.5 L 0 -0.5 Z M 74.68350959036869 0.5 L 121.36701918073737 0.5 L 121.36701918073737 3.5 L 128.36701918073737 0 L 121.36701918073737 -3.5 L 121.36701918073737 -0.5 L 74.68350959036869 -0.5 Z" transform="translate(771.3530883490437 131.49747880850558) rotate(148.94386453735618)"></path><text text-anchor="middle" font-size="8px" fill="#000000" x="719.3678145725039" y="165.80274428545977" transform="rotate(328.94386453735615 719.3678145725039 162.80274428545977)">donate</text><rect class="overlay" fill="yellow" x="0" y="-10" height="20" opacity="0" width="128.36701918073737" transform="translate(771.3530883490437 131.49747880850558) rotate(148.94386453735618)"></rect></g><g class="relationship"><path fill="#D4D6D7" stroke="none" d="M 0 0.5 L 29.27613011375658 0.5 L 29.27613011375658 -0.5 L 0 -0.5 Z M 57.27613011375658 0.5 L 86.55226022751316 0.5 L 86.55226022751316 3.5 L 93.55226022751316 0 L 86.55226022751316 -3.5 L 86.55226022751316 -0.5 L 57.27613011375658 -0.5 Z" transform="translate(663.5074983343129 89.85478979325961) rotate(105.81089815009881)"></path><text text-anchor="middle" font-size="8px" fill="#000000" x="651.7163426592813" y="134.49361885304415" transform="rotate(285.8108981500988 651.7163426592813 131.49361885304415)">donate</text><rect class="overlay" fill="yellow" x="0" y="-10" height="20" opacity="0" width="93.55226022751316" transform="translate(663.5074983343129 89.85478979325961) rotate(105.81089815009881)"></rect></g><g class="relationship"><path fill="#D4D6D7" stroke="none" d="M 0 0.5 L 20.928845609208494 0.5 L 20.928845609208494 -0.5 L 0 -0.5 Z M 48.928845609208494 0.5 L 69.85769121841699 0.5 L 69.85769121841699 3.5 L 76.85769121841699 0 L 69.85769121841699 -3.5 L 69.85769121841699 -0.5 L 48.928845609208494 -0.5 Z" transform="translate(538.4737339057762 294.4966481322268) rotate(-40.66099813167065)"></path><text text-anchor="middle" font-size="8px" fill="#000000" x="564.9699895346055" y="274.7376346816475" transform="rotate(-40.66099813167065 564.9699895346055 271.7376346816475)">donate</text><rect class="overlay" fill="yellow" x="0" y="-10" height="20" opacity="0" width="76.85769121841699" transform="translate(538.4737339057762 294.4966481322268) rotate(-40.66099813167065)"></rect></g><g class="relationship"><path fill="#D4D6D7" stroke="none" d="M 0 0.5 L 24.533638538449694 0.5 L 24.533638538449694 -0.5 L 0 -0.5 Z M 52.533638538449694 0.5 L 77.06727707689939 0.5 L 77.06727707689939 3.5 L 84.06727707689939 0 L 77.06727707689939 -3.5 L 77.06727707689939 -0.5 L 52.533638538449694 -0.5 Z" transform="translate(514.9856260020226 271.4457168057603) rotate(-25.335931290049004)"></path><text text-anchor="middle" font-size="8px" fill="#000000" x="549.812882146253" y="257.9562192853363" transform="rotate(-25.335931290049004 549.812882146253 254.95621928533632)">donate</text><rect class="overlay" fill="yellow" x="0" y="-10" height="20" opacity="0" width="84.06727707689939" transform="translate(514.9856260020226 271.4457168057603) rotate(-25.335931290049004)"></rect></g><g class="relationship"><path fill="#D4D6D7" stroke="none" d="M 0 0.5 L -2.8316125990372996 0.5 L -2.8316125990372996 -0.5 L 0 -0.5 Z M -2.8316125990372996 0.5 L -5.663225198074599 0.5 L -5.663225198074599 3.5 L 1.3367748019254009 0 L -5.663225198074599 -3.5 L -5.663225198074599 -0.5 L -2.8316125990372996 -0.5 Z" transform="translate(650.5309193957941 184.28623338950422) rotate(124.49680243909249)"></path><text text-anchor="middle" font-size="8px" fill="#000000" x="652.1346321961366" y="184.95253778702218" transform="rotate(304.4968024390925 652.1346321961366 181.95253778702218)"></text><rect class="overlay" fill="yellow" x="0" y="-10" height="20" opacity="0" width="1.3367748019254009" transform="translate(650.5309193957941 184.28623338950422) rotate(124.49680243909249)"></rect></g><g class="relationship"><path fill="#D4D6D7" stroke="none" d="M 0 0.5 L 11.526266783074135 0.5 L 11.526266783074135 -0.5 L 0 -0.5 Z M 39.526266783074135 0.5 L 51.05253356614827 0.5 L 51.05253356614827 3.5 L 58.05253356614827 0 L 51.05253356614827 -3.5 L 51.05253356614827 -0.5 L 39.526266783074135 -0.5 Z" transform="translate(723.5882204334791 235.90614288753383) rotate(-169.68819642613812)"></path><text text-anchor="middle" font-size="8px" fill="#000000" x="698.4742492710229" y="234.33681598611946" transform="rotate(10.31180357386188 698.4742492710229 231.33681598611946)">donate</text><rect class="overlay" fill="yellow" x="0" y="-10" height="20" opacity="0" width="58.05253356614827" transform="translate(723.5882204334791 235.90614288753383) rotate(-169.68819642613812)"></rect></g><g class="relationship"><path fill="#D4D6D7" stroke="none" d="M 0 0.5 L 28.81949723870723 0.5 L 28.81949723870723 -0.5 L 0 -0.5 Z M 56.81949723870723 0.5 L 85.63899447741446 0.5 L 85.63899447741446 3.5 L 92.63899447741446 0 L 85.63899447741446 -3.5 L 85.63899447741446 -0.5 L 56.81949723870723 -0.5 Z" transform="translate(615.5331254902032 86.22227621428235) rotate(84.98870936310321)"></path><text text-anchor="middle" font-size="8px" fill="#000000" x="619.2734963528808" y="131.8780960936996" transform="rotate(84.98870936310321 619.2734963528808 128.8780960936996)">donate</text><rect class="overlay" fill="yellow" x="0" y="-10" height="20" opacity="0" width="92.63899447741446" transform="translate(615.5331254902032 86.22227621428235) rotate(84.98870936310321)"></rect></g><g class="relationship"><path fill="#D4D6D7" stroke="none" d="M 0 0.5 L 33.61415801369647 0.5 L 33.61415801369647 -0.5 L 0 -0.5 Z M 61.61415801369647 0.5 L 95.22831602739294 0.5 L 95.22831602739294 3.5 L 102.22831602739294 0 L 95.22831602739294 -3.5 L 95.22831602739294 -0.5 L 61.61415801369647 -0.5 Z" transform="translate(639.833229731054 166.35524124473622) rotate(173.8623115433433)"></path><text text-anchor="middle" font-size="8px" fill="#000000" x="592.4920041737737" y="174.4460571015486" transform="rotate(353.8623115433433 592.4920041737737 171.4460571015486)">donate</text><rect class="overlay" fill="yellow" x="0" y="-10" height="20" opacity="0" width="102.22831602739294" transform="translate(639.833229731054 166.35524124473622) rotate(173.8623115433433)"></rect></g><g class="relationship"><path fill="#D4D6D7" stroke="none" d="M 0 0.5 L 23.421914797429963 0.5 L 23.421914797429963 -0.5 L 0 -0.5 Z M 51.42191479742996 0.5 L 74.84382959485993 0.5 L 74.84382959485993 3.5 L 81.84382959485993 0 L 74.84382959485993 -3.5 L 74.84382959485993 -0.5 L 51.42191479742996 -0.5 Z" transform="translate(751.9583680101767 503.81301870807374) rotate(-125.80745038089742)"></path><text text-anchor="middle" font-size="8px" fill="#000000" x="730.0641851966799" y="476.4643043030897" transform="rotate(54.19254961910258 730.0641851966799 473.4643043030897)">donate</text><rect class="overlay" fill="yellow" x="0" y="-10" height="20" opacity="0" width="81.84382959485993" transform="translate(751.9583680101767 503.81301870807374) rotate(-125.80745038089742)"></rect></g><g class="relationship"><path fill="#D4D6D7" stroke="none" d="M 0 0.5 L 22.617371521928277 0.5 L 22.617371521928277 -0.5 L 0 -0.5 Z M 50.61737152192828 0.5 L 73.23474304385655 0.5 L 73.23474304385655 3.5 L 80.23474304385655 0 L 73.23474304385655 -3.5 L 73.23474304385655 -0.5 L 50.61737152192828 -0.5 Z" transform="translate(398.0820957091251 115.3150609071264) rotate(33.434285100926516)"></path><text text-anchor="middle" font-size="8px" fill="#000000" x="428.63996281096905" y="138.4905077512725" transform="rotate(33.434285100926516 428.63996281096905 135.4905077512725)">donate</text><rect class="overlay" fill="yellow" x="0" y="-10" height="20" opacity="0" width="80.23474304385655" transform="translate(398.0820957091251 115.3150609071264) rotate(33.434285100926516)"></rect></g><g class="relationship"><path fill="#D4D6D7" stroke="none" d="M 0 0.5 L 0.8033020337675083 0.5 L 0.8033020337675083 -0.5 L 0 -0.5 Z M 28.80330203376751 0.5 L 29.606604067535017 0.5 L 29.606604067535017 3.5 L 36.60660406753502 0 L 29.606604067535017 -3.5 L 29.606604067535017 -0.5 L 28.80330203376751 -0.5 Z" transform="translate(710.8228866270559 475.42286866808996) rotate(-113.17746153026162)"></path><text text-anchor="middle" font-size="8px" fill="#000000" x="704.9965982994107" y="464.8143376883666" transform="rotate(66.82253846973838 704.9965982994107 461.8143376883666)">donate</text><rect class="overlay" fill="yellow" x="0" y="-10" height="20" opacity="0" width="36.60660406753502" transform="translate(710.8228866270559 475.42286866808996) rotate(-113.17746153026162)"></rect></g><g class="relationship"><path fill="#D4D6D7" stroke="none" d="M 0 0.5 L 24.618024130647484 0.5 L 24.618024130647484 -0.5 L 0 -0.5 Z M 52.618024130647484 0.5 L 77.23604826129497 0.5 L 77.23604826129497 3.5 L 84.23604826129497 0 L 77.23604826129497 -3.5 L 77.23604826129497 -0.5 L 52.618024130647484 -0.5 Z" transform="translate(469.297297785057 60.78763618342879) rotate(76.4428112154761)"></path><text text-anchor="middle" font-size="8px" fill="#000000" x="478.34997286437465" y="101.32962416573432" transform="rotate(76.4428112154761 478.34997286437465 98.32962416573432)">donate</text><rect class="overlay" fill="yellow" x="0" y="-10" height="20" opacity="0" width="84.23604826129497" transform="translate(469.297297785057 60.78763618342879) rotate(76.4428112154761)"></rect></g><g class="relationship"><path fill="#D4D6D7" stroke="none" d="M 0 0.5 L 18.693954397945163 0.5 L 18.693954397945163 -0.5 L 0 -0.5 Z M 46.69395439794516 0.5 L 65.38790879589033 0.5 L 65.38790879589033 3.5 L 72.38790879589033 0 L 65.38790879589033 -3.5 L 65.38790879589033 -0.5 L 46.69395439794516 -0.5 Z" transform="translate(575.7821830621338 445.3620323726319) rotate(-21.047320537205636)"></path><text text-anchor="middle" font-size="8px" fill="#000000" x="606.2949319249835" y="436.62036251662" transform="rotate(-21.047320537205636 606.2949319249835 433.62036251662)">donate</text><rect class="overlay" fill="yellow" x="0" y="-10" height="20" opacity="0" width="72.38790879589033" transform="translate(575.7821830621338 445.3620323726319) rotate(-21.047320537205636)"></rect></g><g class="relationship"><path fill="#D4D6D7" stroke="none" d="M 0 0.5 L 35.90680366815272 0.5 L 35.90680366815272 -0.5 L 0 -0.5 Z M 63.90680366815272 0.5 L 99.81360733630544 0.5 L 99.81360733630544 3.5 L 106.81360733630544 0 L 99.81360733630544 -3.5 L 99.81360733630544 -0.5 L 63.90680366815272 -0.5 Z" transform="translate(643.158698497181 206.1587645338135) rotate(-170.3553427255102)"></path><text text-anchor="middle" font-size="8px" fill="#000000" x="593.9572898050864" y="200.7975185091464" transform="rotate(9.644657274489788 593.9572898050864 197.7975185091464)">donate</text><rect class="overlay" fill="yellow" x="0" y="-10" height="20" opacity="0" width="106.81360733630544" transform="translate(643.158698497181 206.1587645338135) rotate(-170.3553427255102)"></rect></g><g class="relationship"><path fill="#D4D6D7" stroke="none" d="M 0 0.5 L 11.192161298859439 0.5 L 11.192161298859439 -0.5 L 0 -0.5 Z M 39.19216129885944 0.5 L 50.38432259771888 0.5 L 50.38432259771888 3.5 L 57.38432259771888 0 L 50.38432259771888 -3.5 L 50.38432259771888 -0.5 L 39.19216129885944 -0.5 Z" transform="translate(775.7601504683962 383.9764022275642) rotate(167.5331797867801)"></path><text text-anchor="middle" font-size="8px" fill="#000000" x="751.161990534685" y="392.414740097108" transform="rotate(347.5331797867801 751.161990534685 389.414740097108)">donate</text><rect class="overlay" fill="yellow" x="0" y="-10" height="20" opacity="0" width="57.38432259771888" transform="translate(775.7601504683962 383.9764022275642) rotate(167.5331797867801)"></rect></g><g class="relationship"><path fill="#D4D6D7" stroke="none" d="M 0 0.5 L 27.66214403202808 0.5 L 27.66214403202808 -0.5 L 0 -0.5 Z M 55.66214403202808 0.5 L 83.32428806405616 0.5 L 83.32428806405616 3.5 L 90.32428806405616 0 L 83.32428806405616 -3.5 L 83.32428806405616 -0.5 L 55.66214403202808 -0.5 Z" transform="translate(389.20921718030655 252.67730624927378) rotate(-33.07110511813201)"></path><text text-anchor="middle" font-size="8px" fill="#000000" x="424.12184454001806" y="232.94313161751344" transform="rotate(-33.07110511813201 424.12184454001806 229.94313161751344)">donate</text><rect class="overlay" fill="yellow" x="0" y="-10" height="20" opacity="0" width="90.32428806405616" transform="translate(389.20921718030655 252.67730624927378) rotate(-33.07110511813201)"></rect></g><g class="relationship"><path fill="#D4D6D7" stroke="none" d="M 0 0.5 L 21.61859247176757 0.5 L 21.61859247176757 -0.5 L 0 -0.5 Z M 49.61859247176757 0.5 L 71.23718494353514 0.5 L 71.23718494353514 3.5 L 78.23718494353514 0 L 71.23718494353514 -3.5 L 71.23718494353514 -0.5 L 49.61859247176757 -0.5 Z" transform="translate(562.6451954585981 412.0487791716849) rotate(-3.4181530067360653)"></path><text text-anchor="middle" font-size="8px" fill="#000000" x="598.2004220197816" y="412.9251045608354" transform="rotate(-3.4181530067360653 598.2004220197816 409.9251045608354)">donate</text><rect class="overlay" fill="yellow" x="0" y="-10" height="20" opacity="0" width="78.23718494353514" transform="translate(562.6451954585981 412.0487791716849) rotate(-3.4181530067360653)"></rect></g><g class="relationship"><path fill="#D4D6D7" stroke="none" d="M 0 0.5 L 11.61755948631835 0.5 L 11.61755948631835 -0.5 L 0 -0.5 Z M 39.61755948631835 0.5 L 51.2351189726367 0.5 L 51.2351189726367 3.5 L 58.2351189726367 0 L 51.2351189726367 -3.5 L 51.2351189726367 -0.5 L 39.61755948631835 -0.5 Z" transform="translate(428.0115191965936 250.0657291270608) rotate(-44.21432703315374)"></path><text text-anchor="middle" font-size="8px" fill="#000000" x="446.3725528805597" y="235.20146882635643" transform="rotate(-44.21432703315374 446.3725528805597 232.20146882635643)">donate</text><rect class="overlay" fill="yellow" x="0" y="-10" height="20" opacity="0" width="58.2351189726367" transform="translate(428.0115191965936 250.0657291270608) rotate(-44.21432703315374)"></rect></g><g class="relationship"><path fill="#D4D6D7" stroke="none" d="M 0 0.5 L 38.172766557213095 0.5 L 38.172766557213095 -0.5 L 0 -0.5 Z M 66.1727665572131 0.5 L 104.34553311442619 0.5 L 104.34553311442619 3.5 L 111.34553311442619 0 L 104.34553311442619 -3.5 L 104.34553311442619 -0.5 L 66.1727665572131 -0.5 Z" transform="translate(537.9669313360931 455.40475848858006) rotate(-19.45398811967946)"></path><text text-anchor="middle" font-size="8px" fill="#000000" x="587.1611157111513" y="441.0286313623692" transform="rotate(-19.45398811967946 587.1611157111513 438.0286313623692)">donate</text><rect class="overlay" fill="yellow" x="0" y="-10" height="20" opacity="0" width="111.34553311442619" transform="translate(537.9669313360931 455.40475848858006) rotate(-19.45398811967946)"></rect></g><g class="relationship"><path fill="#D4D6D7" stroke="none" d="M 0 0.5 L 9.987957927686182 0.5 L 9.987957927686182 -0.5 L 0 -0.5 Z M 37.98795792768618 0.5 L 47.975915855372364 0.5 L 47.975915855372364 3.5 L 54.975915855372364 0 L 47.975915855372364 -3.5 L 47.975915855372364 -0.5 L 37.98795792768618 -0.5 Z" transform="translate(410.2873639495681 216.96018031863613) rotate(-21.88264099556155)"></path><text text-anchor="middle" font-size="8px" fill="#000000" x="432.5469707040813" y="211.0197087049642" transform="rotate(-21.88264099556155 432.5469707040813 208.0197087049642)">donate</text><rect class="overlay" fill="yellow" x="0" y="-10" height="20" opacity="0" width="54.975915855372364" transform="translate(410.2873639495681 216.96018031863613) rotate(-21.88264099556155)"></rect></g><g class="relationship"><path fill="#DFE1E3" stroke="none" d="M 0 1 L 17.470843754374897 1 L 17.470843754374897 -1 L 0 -1 Z M 46.4708437543749 1 L 63.941687508749794 1 L 63.941687508749794 4 L 71.9416875087498 0 L 63.941687508749794 -4 L 63.941687508749794 -1 L 46.4708437543749 -1 Z" transform="translate(836.8055618730612 253.9323370686605) rotate(-48.63630543523709)"></path><text text-anchor="middle" font-size="8px" fill="#000000" x="857.9330599696314" y="232.93726102072773" transform="rotate(-48.63630543523709 857.9330599696314 229.93726102072773)">impact</text><rect class="overlay" fill="yellow" x="0" y="-10" height="20" opacity="0" width="71.9416875087498" transform="translate(836.8055618730612 253.9323370686605) rotate(-48.63630543523709)"></rect></g><g class="relationship"><path fill="#DFE1E3" stroke="none" d="M 0 1 L 13.237388099379615 1 L 13.237388099379615 -1 L 0 -1 Z M 42.237388099379615 1 L 55.47477619875923 1 L 55.47477619875923 4 L 63.47477619875923 0 L 55.47477619875923 -4 L 55.47477619875923 -1 L 42.237388099379615 -1 Z" transform="translate(409.7126435523603 402.8148265850672) rotate(131.90340630793293)"></path><text text-anchor="middle" font-size="8px" fill="#000000" x="391.1874854213878" y="426.4589835016881" transform="rotate(311.9034063079329 391.1874854213878 423.4589835016881)">impact</text><rect class="overlay" fill="yellow" x="0" y="-10" height="20" opacity="0" width="63.47477619875923" transform="translate(409.7126435523603 402.8148265850672) rotate(131.90340630793293)"></rect></g><g class="relationship"><path fill="#DFE1E3" stroke="none" d="M 0 1 L 0.08941389268300526 1 L 0.08941389268300526 -1 L 0 -1 Z M 27.089413892683005 1 L 27.17882778536601 1 L 27.17882778536601 4 L 35.17882778536601 0 L 27.17882778536601 -4 L 27.17882778536601 -1 L 27.089413892683005 -1 Z" transform="translate(666.2876982192427 210.23973604815575) rotate(-11.704433444934224)"></path><text text-anchor="middle" font-size="8px" fill="#000000" x="679.5945490102837" y="210.48294589081402" transform="rotate(-11.704433444934224 679.5945490102837 207.48294589081402)">imp…</text><rect class="overlay" fill="yellow" x="0" y="-10" height="20" opacity="0" width="35.17882778536601" transform="translate(666.2876982192427 210.23973604815575) rotate(-11.704433444934224)"></rect></g><g class="relationship"><path fill="#DFE1E3" stroke="none" d="M 0 1 L 24.098223466945342 1 L 24.098223466945342 -1 L 0 -1 Z M 53.09822346694534 1 L 77.19644693389068 1 L 77.19644693389068 4 L 85.19644693389068 0 L 77.19644693389068 -4 L 77.19644693389068 -1 L 53.09822346694534 -1 Z" transform="translate(475.48555270514163 148.7900486118833) rotate(-124.98527864928238)"></path><text text-anchor="middle" font-size="8px" fill="#000000" x="453.3546457260134" y="120.16654768163482" transform="rotate(55.01472135071762 453.3546457260134 117.16654768163482)">impact</text><rect class="overlay" fill="yellow" x="0" y="-10" height="20" opacity="0" width="85.19644693389068" transform="translate(475.48555270514163 148.7900486118833) rotate(-124.98527864928238)"></rect></g><g class="relationship"><path fill="#DFE1E3" stroke="none" d="M 0 1 L -5.195395339920633 1 L -5.195395339920633 -1 L 0 -1 Z M -5.195395339920633 1 L -10.390790679841267 1 L -10.390790679841267 4 L -2.390790679841267 0 L -10.390790679841267 -4 L -10.390790679841267 -1 L -5.195395339920633 -1 Z" transform="translate(493.38213189193675 221.24348037690723) rotate(97.235705170407)"></path><text text-anchor="middle" font-size="8px" fill="#000000" x="494.036499562194" y="219.08945906436" transform="rotate(277.235705170407 494.036499562194 216.08945906436)"></text><rect class="overlay" fill="yellow" x="0" y="-10" height="20" opacity="0" width="0" transform="translate(493.38213189193675 221.24348037690723) rotate(97.235705170407)"></rect></g><g class="relationship"><path fill="#DFE1E3" stroke="none" d="M 0 1 L 12.685148349998983 1 L 12.685148349998983 -1 L 0 -1 Z M 41.68514834999898 1 L 54.370296699997965 1 L 54.370296699997965 4 L 62.370296699997965 0 L 54.370296699997965 -4 L 54.370296699997965 -1 L 41.68514834999898 -1 Z" transform="translate(715.667354676896 424.37253925724013) rotate(28.96886923640177)"></path><text text-anchor="middle" font-size="8px" fill="#000000" x="739.4511785960827" y="440.53924008138637" transform="rotate(28.96886923640177 739.4511785960827 437.53924008138637)">impact</text><rect class="overlay" fill="yellow" x="0" y="-10" height="20" opacity="0" width="62.370296699997965" transform="translate(715.667354676896 424.37253925724013) rotate(28.96886923640177)"></rect></g><g class="relationship"><path fill="#DFE1E3" stroke="none" d="M 0 1 L 50.631774596492875 1 L 50.631774596492875 -1 L 0 -1 Z M 79.63177459649287 1 L 130.26354919298575 1 L 130.26354919298575 4 L 138.26354919298575 0 L 130.26354919298575 -4 L 130.26354919298575 -1 L 79.63177459649287 -1 Z" transform="translate(475.32967093410207 363.73600569504464) rotate(-13.456006612423698)"></path><text text-anchor="middle" font-size="8px" fill="#000000" x="538.6735053685145" y="351.57992766561676" transform="rotate(-13.456006612423698 538.6735053685145 348.57992766561676)">impact</text><rect class="overlay" fill="yellow" x="0" y="-10" height="20" opacity="0" width="138.26354919298575" transform="translate(475.32967093410207 363.73600569504464) rotate(-13.456006612423698)"></rect></g><g class="relationship"><path fill="#DFE1E3" stroke="none" d="M 0 1 L 15.320038520074561 1 L 15.320038520074561 -1 L 0 -1 Z M 44.32003852007456 1 L 59.64007704014912 1 L 59.64007704014912 4 L 67.64007704014912 0 L 59.64007704014912 -4 L 59.64007704014912 -1 L 44.32003852007456 -1 Z" transform="translate(604.1167067735677 185.6300248203168) rotate(-125.10437128816983)"></path><text text-anchor="middle" font-size="8px" fill="#000000" x="586.9681667093834" y="164.23407698044394" transform="rotate(54.89562871183017 586.9681667093834 161.23407698044394)">impact</text><rect class="overlay" fill="yellow" x="0" y="-10" height="20" opacity="0" width="67.64007704014912" transform="translate(604.1167067735677 185.6300248203168) rotate(-125.10437128816983)"></rect></g><g class="relationship"><path fill="#DFE1E3" stroke="none" d="M 0 1 L 16.451043015632152 1 L 16.451043015632152 -1 L 0 -1 Z M 45.45104301563215 1 L 61.902086031264304 1 L 61.902086031264304 4 L 69.9020860312643 0 L 61.902086031264304 -4 L 61.902086031264304 -1 L 45.45104301563215 -1 Z" transform="translate(523.5553702742129 212.67830198980982) rotate(51.06933470494874)"></path><text text-anchor="middle" font-size="8px" fill="#000000" x="543.0043709454233" y="239.75533329864794" transform="rotate(51.06933470494874 543.0043709454233 236.75533329864794)">impact</text><rect class="overlay" fill="yellow" x="0" y="-10" height="20" opacity="0" width="69.9020860312643" transform="translate(523.5553702742129 212.67830198980982) rotate(51.06933470494874)"></rect></g><g class="relationship"><path fill="#DFE1E3" stroke="none" d="M 0 1 L 15.715240161736688 1 L 15.715240161736688 -1 L 0 -1 Z M 44.71524016173669 1 L 60.430480323473375 1 L 60.430480323473375 4 L 68.43048032347338 0 L 60.430480323473375 -4 L 60.430480323473375 -1 L 44.71524016173669 -1 Z" transform="translate(846.4113338006985 266.59917061828577) rotate(-25.712720116374776)"></path><text text-anchor="middle" font-size="8px" fill="#000000" x="873.6346827383904" y="256.49001310729034" transform="rotate(-25.712720116374776 873.6346827383904 253.49001310729034)">impact</text><rect class="overlay" fill="yellow" x="0" y="-10" height="20" opacity="0" width="68.43048032347338" transform="translate(846.4113338006985 266.59917061828577) rotate(-25.712720116374776)"></rect></g><g class="relationship"><path fill="#DFE1E3" stroke="none" d="M 0 1 L 14.617061084626997 1 L 14.617061084626997 -1 L 0 -1 Z M 43.617061084627 1 L 58.23412216925399 1 L 58.23412216925399 4 L 66.234122169254 0 L 58.23412216925399 -4 L 58.23412216925399 -1 L 43.617061084627 -1 Z" transform="translate(667.928998640717 442.9150598286992) rotate(108.57682375307878)"></path><text text-anchor="middle" font-size="8px" fill="#000000" x="658.6530044333173" y="473.51504493141596" transform="rotate(288.57682375307877 658.6530044333173 470.51504493141596)">impact</text><rect class="overlay" fill="yellow" x="0" y="-10" height="20" opacity="0" width="66.234122169254" transform="translate(667.928998640717 442.9150598286992) rotate(108.57682375307878)"></rect></g><g class="relationship"><path fill="#DFE1E3" stroke="none" d="M 0 1 L 21.105867585924557 1 L 21.105867585924557 -1 L 0 -1 Z M 50.10586758592456 1 L 71.21173517184911 1 L 71.21173517184911 4 L 79.21173517184911 0 L 71.21173517184911 -4 L 71.21173517184911 -1 L 50.10586758592456 -1 Z" transform="translate(683.8621452061282 444.87175278087597) rotate(85.42564577018312)"></path><text text-anchor="middle" font-size="8px" fill="#000000" x="686.7018112390269" y="483.3642041384251" transform="rotate(85.42564577018312 686.7018112390269 480.3642041384251)">impact</text><rect class="overlay" fill="yellow" x="0" y="-10" height="20" opacity="0" width="79.21173517184911" transform="translate(683.8621452061282 444.87175278087597) rotate(85.42564577018312)"></rect></g><g class="relationship"><path fill="#DFE1E3" stroke="none" d="M 0 1 L 0.08941389268300526 1 L 0.08941389268300526 -1 L 0 -1 Z M 27.089413892683005 1 L 27.17882778536601 1 L 27.17882778536601 4 L 35.17882778536601 0 L 27.17882778536601 -4 L 27.17882778536601 -1 L 27.089413892683005 -1 Z" transform="translate(666.2876982192427 210.23973604815575) rotate(-11.704433444934224)"></path><text text-anchor="middle" font-size="8px" fill="#000000" x="679.5945490102837" y="210.48294589081402" transform="rotate(-11.704433444934224 679.5945490102837 207.48294589081402)">imp…</text><rect class="overlay" fill="yellow" x="0" y="-10" height="20" opacity="0" width="35.17882778536601" transform="translate(666.2876982192427 210.23973604815575) rotate(-11.704433444934224)"></rect></g><g class="relationship"><path fill="#DFE1E3" stroke="none" d="M 0 1 L 9.48607012610897 1 L 9.48607012610897 -1 L 0 -1 Z M 38.48607012610897 1 L 47.97214025221794 1 L 47.97214025221794 4 L 55.97214025221794 0 L 47.97214025221794 -4 L 47.97214025221794 -1 L 38.48607012610897 -1 Z" transform="translate(782.2145902359434 255.54307309235264) rotate(-134.74379958606957)"></path><text text-anchor="middle" font-size="8px" fill="#000000" x="765.3298872236453" y="241.50668954768247" transform="rotate(45.25620041393043 765.3298872236453 238.50668954768247)">impact</text><rect class="overlay" fill="yellow" x="0" y="-10" height="20" opacity="0" width="55.97214025221794" transform="translate(782.2145902359434 255.54307309235264) rotate(-134.74379958606957)"></rect></g><g class="relationship"><path fill="#DFE1E3" stroke="none" d="M 0 1 L 19.11504397790479 1 L 19.11504397790479 -1 L 0 -1 Z M 48.11504397790479 1 L 67.23008795580958 1 L 67.23008795580958 4 L 75.23008795580958 0 L 67.23008795580958 -4 L 67.23008795580958 -1 L 48.11504397790479 -1 Z" transform="translate(451.86142296302467 336.1413692629464) rotate(-67.30393512401353)"></path><text text-anchor="middle" font-size="8px" fill="#000000" x="464.8315416431443" y="308.12931994239864" transform="rotate(-67.30393512401353 464.8315416431443 305.12931994239864)">impact</text><rect class="overlay" fill="yellow" x="0" y="-10" height="20" opacity="0" width="75.23008795580958" transform="translate(451.86142296302467 336.1413692629464) rotate(-67.30393512401353)"></rect></g><g class="relationship"><path fill="#DFE1E3" stroke="none" d="M 0 1 L 18.455862834089174 1 L 18.455862834089174 -1 L 0 -1 Z M 47.455862834089174 1 L 65.91172566817835 1 L 65.91172566817835 4 L 73.91172566817835 0 L 65.91172566817835 -4 L 65.91172566817835 -1 L 47.455862834089174 -1 Z" transform="translate(587.789416295613 225.64475348674233) rotate(169.49843568405336)"></path><text text-anchor="middle" font-size="8px" fill="#000000" x="555.3855664142658" y="234.65136717553705" transform="rotate(349.49843568405333 555.3855664142658 231.65136717553705)">impact</text><rect class="overlay" fill="yellow" x="0" y="-10" height="20" opacity="0" width="73.91172566817835" transform="translate(587.789416295613 225.64475348674233) rotate(169.49843568405336)"></rect></g><g class="relationship"><path fill="#DFE1E3" stroke="none" d="M 0 1 L 39.573625680736214 1 L 39.573625680736214 -1 L 0 -1 Z M 68.57362568073621 1 L 108.14725136147243 1 L 108.14725136147243 4 L 116.14725136147243 0 L 108.14725136147243 -4 L 108.14725136147243 -1 L 68.57362568073621 -1 Z" transform="translate(771.4511384810336 293.18166500986985) rotate(166.6615220697301)"></path><text text-anchor="middle" font-size="8px" fill="#000000" x="718.8361942952913" y="308.6566256347214" transform="rotate(346.6615220697301 718.8361942952913 305.6566256347214)">impact</text><rect class="overlay" fill="yellow" x="0" y="-10" height="20" opacity="0" width="116.14725136147243" transform="translate(771.4511384810336 293.18166500986985) rotate(166.6615220697301)"></rect></g><g class="relationship"><path fill="#DFE1E3" stroke="none" d="M 0 1 L 7.918590851855427 1 L 7.918590851855427 -1 L 0 -1 Z M 7.918590851855427 1 L 15.837181703710854 1 L 15.837181703710854 4 L 23.837181703710854 0 L 15.837181703710854 -4 L 15.837181703710854 -1 L 7.918590851855427 -1 Z" transform="translate(522.023912354945 149.26861434603228) rotate(-53.836388871914394)"></path><text text-anchor="middle" font-size="8px" fill="#000000" x="526.6966177310037" y="145.8756568498776" transform="rotate(-53.836388871914394 526.6966177310037 142.8756568498776)"></text><rect class="overlay" fill="yellow" x="0" y="-10" height="20" opacity="0" width="23.837181703710854" transform="translate(522.023912354945 149.26861434603228) rotate(-53.836388871914394)"></rect></g><g class="relationship"><path fill="#DFE1E3" stroke="none" d="M 0 1 L 25.720335186176314 1 L 25.720335186176314 -1 L 0 -1 Z M 54.720335186176314 1 L 80.44067037235263 1 L 80.44067037235263 4 L 88.44067037235263 0 L 80.44067037235263 -4 L 80.44067037235263 -1 L 54.720335186176314 -1 Z" transform="translate(655.2597007326027 374.1088231329519) rotate(-129.4428584731019)"></path><text text-anchor="middle" font-size="8px" fill="#000000" x="629.7073856725888" y="346.0483247859814" transform="rotate(50.55714152689811 629.7073856725888 343.0483247859814)">impact</text><rect class="overlay" fill="yellow" x="0" y="-10" height="20" opacity="0" width="88.44067037235263" transform="translate(655.2597007326027 374.1088231329519) rotate(-129.4428584731019)"></rect></g></g><g class="layer nodes"><g class="node" transform="translate(625.6308017332694,361.7350874804309)"><circle class="outline" cx="0" cy="0" r="25" fill="#FCC940" stroke="#F3BA25" stroke-width="2px"></circle><text text-anchor="middle" y="5" font-size="10px" fill="#000000">Benjamin</text></g><g class="node" transform="translate(519.509282628689,310.786202692097)"><circle class="outline" cx="0" cy="0" r="25" fill="#FCC940" stroke="#F3BA25" stroke-width="2px"></circle><text text-anchor="middle" y="5" font-size="10px" fill="#000000">Taylor</text></g><g class="node" transform="translate(311.7237356207893,421.9360052634494)"><circle class="outline" cx="0" cy="0" r="25" fill="#FCC940" stroke="#F3BA25" stroke-width="2px"></circle><text text-anchor="middle" y="5" font-size="10px" fill="#000000">Selly</text></g><g class="node" transform="translate(492.39026681379096,282.1438354793774)"><circle class="outline" cx="0" cy="0" r="25" fill="#FCC940" stroke="#F3BA25" stroke-width="2px"></circle><text text-anchor="middle" y="5" font-size="10px" fill="#000000">Molie</text></g><g class="node" transform="translate(664.6899254767092,163.68228845654033)"><circle class="outline" cx="0" cy="0" r="25" fill="#FCC940" stroke="#F3BA25" stroke-width="2px"></circle><text text-anchor="middle" y="5" font-size="10px" fill="#000000">Emil</text></g><g class="node" transform="translate(766.5849464014838,524.0877124064493)"><circle class="outline" cx="0" cy="0" r="25" fill="#FCC940" stroke="#F3BA25" stroke-width="2px"></circle><text text-anchor="middle" y="5" font-size="10px" fill="#000000">Andreas</text></g><g class="node" transform="translate(377.2191378889929,101.5405557982165)"><circle class="outline" cx="0" cy="0" r="25" fill="#FCC940" stroke="#F3BA25" stroke-width="2px"></circle><text text-anchor="middle" y="5" font-size="10px" fill="#000000">Kenny</text></g><g class="node" transform="translate(720.662394586758,498.40512449973016)"><circle class="outline" cx="0" cy="0" r="25" fill="#FCC940" stroke="#F3BA25" stroke-width="2px"></circle><text text-anchor="middle" y="5" font-size="10px" fill="#000000">Vivek</text></g><g class="node" transform="translate(463.43690274730744,36.48422551740251)"><circle class="outline" cx="0" cy="0" r="25" fill="#FCC940" stroke="#F3BA25" stroke-width="2px"></circle><text text-anchor="middle" y="5" font-size="10px" fill="#000000">Aileen</text></g><g class="node" transform="translate(552.4500797537867,454.34050413616836)"><circle class="outline" cx="0" cy="0" r="25" fill="#FCC940" stroke="#F3BA25" stroke-width="2px"></circle><text text-anchor="middle" y="5" font-size="10px" fill="#000000">Greta</text></g><g class="node" transform="translate(298.34673309356424,364.13443199799525)"><circle class="outline" cx="0" cy="0" r="25" fill="#FCC940" stroke="#F3BA25" stroke-width="2px"></circle><text text-anchor="middle" y="5" font-size="10px" fill="#000000">Adam</text></g><g class="node" transform="translate(772.8926827603954,185.72310254928098)"><circle class="outline" cx="0" cy="0" r="25" fill="#FCC940" stroke="#F3BA25" stroke-width="2px"></circle><text text-anchor="middle" y="5" font-size="10px" fill="#000000">Richard</text></g><g class="node" transform="translate(748.1844249782706,240.3812654546577)"><circle class="outline" cx="0" cy="0" r="25" fill="#FCC940" stroke="#F3BA25" stroke-width="2px"></circle><text text-anchor="middle" y="5" font-size="10px" fill="#000000">Chris</text></g><g class="node" transform="translate(939.3785123688436,278.91883872108065)"><circle class="outline" cx="0" cy="0" r="25" fill="#FCC940" stroke="#F3BA25" stroke-width="2px"></circle><text text-anchor="middle" y="5" font-size="10px" fill="#000000">Lars</text></g><g class="node" transform="translate(924.854581753459,334.7638503473483)"><circle class="outline" cx="0" cy="0" r="25" fill="#FCC940" stroke="#F3BA25" stroke-width="2px"></circle><text text-anchor="middle" y="5" font-size="10px" fill="#000000">Patricia</text></g><g class="node" transform="translate(613.3493242408414,61.31783861566781)"><circle class="outline" cx="0" cy="0" r="25" fill="#FCC940" stroke="#F3BA25" stroke-width="2px"></circle><text text-anchor="middle" y="5" font-size="10px" fill="#000000">Charlie</text></g><g class="node" transform="translate(670.319079940638,65.80063514130032)"><circle class="outline" cx="0" cy="0" r="25" fill="#FCC940" stroke="#F3BA25" stroke-width="2px"></circle><text text-anchor="middle" y="5" font-size="10px" fill="#000000">Robert</text></g><g class="node" transform="translate(667.8053423792716,210.34719447227633)"><circle class="outline" cx="0" cy="0" r="25" fill="#FCC940" stroke="#F3BA25" stroke-width="2px"></circle><text text-anchor="middle" y="5" font-size="10px" fill="#000000">Philip</text></g><g class="node" transform="translate(792.7696453871317,118.60053790632563)"><circle class="outline" cx="0" cy="0" r="25" fill="#FCC940" stroke="#F3BA25" stroke-width="2px"></circle><text text-anchor="middle" y="5" font-size="10px" fill="#000000">Utpal</text></g><g class="node" transform="translate(800.1706800393791,378.5795470262302)"><circle class="outline" cx="0" cy="0" r="25" fill="#FCC940" stroke="#F3BA25" stroke-width="2px"></circle><text text-anchor="middle" y="5" font-size="10px" fill="#000000">May</text></g><g class="node" transform="translate(368.25936680002354,266.3192917735205)"><circle class="outline" cx="0" cy="0" r="25" fill="#FCC940" stroke="#F3BA25" stroke-width="2px"></circle><text text-anchor="middle" y="5" font-size="10px" fill="#000000">User</text></g><g class="node" transform="translate(537.6896707636191,413.5393452380818)"><circle class="outline" cx="0" cy="0" r="25" fill="#FCC940" stroke="#F3BA25" stroke-width="2px"></circle><text text-anchor="middle" y="5" font-size="10px" fill="#000000">User</text></g><g class="node" transform="translate(410.0931127869469,267.49933781082825)"><circle class="outline" cx="0" cy="0" r="25" fill="#FCC940" stroke="#F3BA25" stroke-width="2px"></circle><text text-anchor="middle" y="5" font-size="10px" fill="#000000">User</text></g><g class="node" transform="translate(514.3941999949674,463.73100236677084)"><circle class="outline" cx="0" cy="0" r="25" fill="#FCC940" stroke="#F3BA25" stroke-width="2px"></circle><text text-anchor="middle" y="5" font-size="10px" fill="#000000">User</text></g><g class="node" transform="translate(387.0886335474047,226.27784675008456)"><circle class="outline" cx="0" cy="0" r="25" fill="#FCC940" stroke="#F3BA25" stroke-width="2px"></circle><text text-anchor="middle" y="5" font-size="10px" fill="#000000">User</text></g><g class="node" transform="translate(436.4277157352193,373.0439529286789)"><circle class="outline" cx="0" cy="0" r="40" fill="#4356C0" stroke="#3445A2" stroke-width="2px"></circle><text text-anchor="middle" y="0" font-size="10px" fill="#FFFFFF">Solar</text><text text-anchor="middle" y="10" font-size="10px" fill="#FFFFFF">City</text></g><g class="node" transform="translate(810.3721048659353,283.95353542336363)"><circle class="outline" cx="0" cy="0" r="40" fill="#4356C0" stroke="#3445A2" stroke-width="2px"></circle><text text-anchor="middle" y="0" font-size="10px" fill="#FFFFFF">Sun</text><text text-anchor="middle" y="10" font-size="10px" fill="#FFFFFF">Nation</text></g><g class="node" transform="translate(627.1194135643588,218.3542586585122)"><circle class="outline" cx="0" cy="0" r="40" fill="#4356C0" stroke="#3445A2" stroke-width="2px"></circle><text text-anchor="middle" y="5" font-size="10px" fill="#FFFFFF">Energiser</text></g><g class="node" transform="translate(498.4201906146616,181.56202420016925)"><circle class="outline" cx="0" cy="0" r="40" fill="#4356C0" stroke="#3445A2" stroke-width="2px"></circle><text text-anchor="middle" y="5" font-size="10px" fill="#FFFFFF">Project</text></g><g class="node" transform="translate(680.6720350075257,404.99916574515964)"><circle class="outline" cx="0" cy="0" r="40" fill="#4356C0" stroke="#3445A2" stroke-width="2px"></circle><text text-anchor="middle" y="5" font-size="10px" fill="#FFFFFF">Project</text></g><g class="node" transform="translate(900.8681600970802,181.1746963301649)"><circle class="outline" cx="0" cy="0" r="25" fill="#30B6AF" stroke="#46A39E" stroke-width="2px"></circle><text text-anchor="middle" y="0" font-size="10px" fill="#FFFFFF">News</text><text text-anchor="middle" y="10" font-size="10px" fill="#FFFFFF">article</text></g><g class="node" transform="translate(350.6223927395566,468.6641111848294)"><circle class="outline" cx="0" cy="0" r="25" fill="#30B6AF" stroke="#46A39E" stroke-width="2px"></circle><text text-anchor="middle" y="0" font-size="10px" fill="#FFFFFF">Governor's</text><text text-anchor="middle" y="10" font-size="10px" fill="#FFFFFF">tweet</text></g><g class="node" transform="translate(725.215234641604,198.03167457992822)"><circle class="outline" cx="0" cy="0" r="25" fill="#30B6AF" stroke="#46A39E" stroke-width="2px"></circle><text text-anchor="middle" y="0" font-size="10px" fill="#FFFFFF">School</text><text text-anchor="middle" y="10" font-size="10px" fill="#FFFFFF">visit</text></g><g class="node" transform="translate(412.3026624715313,58.506166891050476)"><circle class="outline" cx="0" cy="0" r="25" fill="#30B6AF" stroke="#46A39E" stroke-width="2px"></circle><text text-anchor="middle" y="5" font-size="10px" fill="#FFFFFF">Impact</text></g><g class="node" transform="translate(490.5344687862033,243.67263909762158)"><circle class="outline" cx="0" cy="0" r="25" fill="#30B6AF" stroke="#46A39E" stroke-width="2px"></circle><text text-anchor="middle" y="5" font-size="10px" fill="#FFFFFF">Impact</text></g><g class="node" transform="translate(792.1061412425,466.68897405299896)"><circle class="outline" cx="0" cy="0" r="25" fill="#30B6AF" stroke="#46A39E" stroke-width="2px"></circle><text text-anchor="middle" y="5" font-size="10px" fill="#FFFFFF">Impact</text></g><g class="node" transform="translate(634.1114528420051,325.74479316844065)"><circle class="outline" cx="0" cy="0" r="25" fill="#30B6AF" stroke="#46A39E" stroke-width="2px"></circle><text text-anchor="middle" y="5" font-size="10px" fill="#FFFFFF">Impact</text></g><g class="node" transform="translate(550.8423935427963,109.84063622405993)"><circle class="outline" cx="0" cy="0" r="25" fill="#30B6AF" stroke="#46A39E" stroke-width="2px"></circle><text text-anchor="middle" y="5" font-size="10px" fill="#FFFFFF">Impact</text></g><g class="node" transform="translate(583.1898948357634,286.5032937839395)"><circle class="outline" cx="0" cy="0" r="25" fill="#30B6AF" stroke="#46A39E" stroke-width="2px"></circle><text text-anchor="middle" y="5" font-size="10px" fill="#FFFFFF">Impact</text></g><g class="node" transform="translate(930.5903955472622,226.0635046321057)"><circle class="outline" cx="0" cy="0" r="25" fill="#30B6AF" stroke="#46A39E" stroke-width="2px"></circle><text text-anchor="middle" y="5" font-size="10px" fill="#FFFFFF">Impact</text></g><g class="node" transform="translate(638.8640052233003,529.3956426530528)"><circle class="outline" cx="0" cy="0" r="25" fill="#30B6AF" stroke="#46A39E" stroke-width="2px"></circle><text text-anchor="middle" y="5" font-size="10px" fill="#FFFFFF">Impact</text></g><g class="node" transform="translate(692.1733181857728,548.7515398004402)"><circle class="outline" cx="0" cy="0" r="25" fill="#30B6AF" stroke="#46A39E" stroke-width="2px"></circle><text text-anchor="middle" y="5" font-size="10px" fill="#FFFFFF">Impact</text></g></g></svg>